<?xml version="1.0" encoding="UTF-8"?>
<svg id="logo" data-name="Logo" xmlns="http://www.w3.org/2000/svg" xmlns:xlink="http://www.w3.org/1999/xlink" viewBox="0 0 512 512">
  <defs>
    <style>
      .mask-color {
        fill: #fff;
      }

      .has-mask {
        mask: url(#mask);
      }

      .has-mask-invert {
        filter: url(#luminosity-invert-noclip);
      }
    </style>
    <filter id="luminosity-invert-noclip" x="20.26" y="20.3" width="471.66" height="246.86" color-interpolation-filters="sRGB" filterUnits="userSpaceOnUse">
      <feColorMatrix result="cm" values="-1 0 0 0 1 0 -1 0 0 1 0 0 -1 0 1 0 0 0 1 0"/>
      <feFlood flood-color="#fff" result="bg"/>
      <feBlend in="cm" in2="bg"/>
    </filter>
    <mask id="mask" x="20.26" y="20.3" width="471.66" height="246.86" maskUnits="userSpaceOnUse">
      <g class="has-mask-invert">
        <g>
          <path class="mask-color" d="m151.52,80.56c-.14-.11-2.19-4.15-14.98-2.28-.87.13-11.14,2.62-12.03,2.78-18.97,3.51-21.56,2.45-21.56,2.45,0,0,6.41,6.11,9.25,10.44,3.82,5.83,6.91,13.83,6.91,13.83l32.41-27.22Z"/>
          <path class="mask-color" d="m314.65,63.13c1.85-.72,5.31-1.83,8.26-3.74,4.17-2.71,7.15-6.29,7.15-6.29,0,0,2.74,8.55,1.87,12.72s-1.73,9.51-1.73,9.51l-15.56-12.2Z"/>
        </g>
      </g>
    </mask>
  </defs>
  <g>
    <g>
      <path fill="currentColor" d="m69.56,390.86c-1.16-1.6-1.81-3.19-1.95-4.76-.14-1.57.22-3.01,1.06-4.31l3.44,2.35c-.56.72-.8,1.48-.73,2.29.07.81.4,1.62.99,2.43.31.43.65.8,1.04,1.13s.78.54,1.2.64c.42.1.82.01,1.2-.27.51-.37.73-.91.66-1.62-.07-.71-.33-1.51-.75-2.41l-.94-2.04c-.41-.91-.7-1.83-.87-2.75s-.12-1.79.13-2.6c.25-.81.8-1.52,1.64-2.13.79-.57,1.61-.89,2.45-.93.84-.05,1.66.1,2.47.45.81.34,1.57.82,2.29,1.42.72.6,1.34,1.27,1.87,2.01.57.79,1.02,1.64,1.34,2.54.32.9.46,1.81.42,2.74-.04.92-.33,1.82-.87,2.68l-3.43-2.32c.36-.55.5-1.17.4-1.86-.09-.68-.39-1.37-.89-2.06-.49-.68-1.02-1.15-1.58-1.42-.57-.27-1.08-.24-1.53.09-.37.27-.57.65-.61,1.15-.04.5.07,1.04.33,1.61l1.04,2.27c.32.69.61,1.41.87,2.16.26.75.43,1.5.51,2.24.08.74-.02,1.45-.28,2.14-.27.69-.78,1.3-1.55,1.86-.78.56-1.6.89-2.47.97-.87.08-1.73-.03-2.57-.32s-1.64-.74-2.38-1.32c-.75-.58-1.39-1.25-1.95-2.02Z"/>
      <path fill="currentColor" d="m83.46,408.23c-1.23-1.39-2.01-2.87-2.37-4.45-.35-1.58-.26-3.13.27-4.67.53-1.54,1.51-2.93,2.92-4.18s2.92-2.04,4.51-2.38c1.59-.34,3.15-.24,4.67.31,1.52.54,2.9,1.51,4.12,2.9,1.24,1.4,2.03,2.89,2.38,4.47s.27,3.14-.26,4.68c-.53,1.54-1.5,2.94-2.91,4.19-1.41,1.25-2.92,2.04-4.52,2.37-1.6.33-3.15.23-4.68-.32-1.52-.54-2.9-1.52-4.14-2.92Zm2.65-2.34c.59.67,1.3,1.13,2.12,1.39.83.26,1.71.27,2.66.03.95-.24,1.9-.79,2.87-1.64.97-.85,1.63-1.73,1.99-2.64.36-.91.46-1.79.3-2.64-.16-.85-.53-1.61-1.12-2.28-.58-.65-1.28-1.11-2.1-1.38-.83-.26-1.71-.27-2.66-.03-.95.24-1.9.79-2.87,1.64-.97.85-1.63,1.73-1.99,2.64-.36.91-.46,1.79-.3,2.64.16.85.53,1.6,1.1,2.26Z"/>
      <path fill="currentColor" d="m94.03,419.07l12.47-13.24,3.13,2.95-9.87,10.48,6.34,5.97-2.59,2.75-9.47-8.92Z"/>
      <path fill="currentColor" d="m107.5,431.39l2.13-2.62,1.99,1.62,7.21-8.87-1.99-1.62,2.13-2.62,7.27,5.91-2.13,2.62-1.94-1.58-7.21,8.87,1.94,1.58-2.13,2.62-7.27-5.91Z"/>
      <path fill="currentColor" d="m119.61,441.1l10.28-15,4.94,3.38c1.23.84,2.28,1.75,3.17,2.72.89.97,1.52,2.01,1.92,3.13.39,1.12.48,2.31.26,3.57-.22,1.27-.82,2.61-1.79,4.04-.98,1.44-2.03,2.48-3.12,3.14-1.1.66-2.24,1-3.42,1.04-1.18.04-2.38-.18-3.61-.66-1.22-.48-2.45-1.13-3.68-1.98l-4.94-3.38Zm5.59-.56l1.46,1c.64.44,1.3.81,1.96,1.11.66.3,1.34.46,2.02.47.68.02,1.36-.18,2.04-.6.68-.41,1.36-1.12,2.03-2.1.68-.99,1.09-1.88,1.23-2.67.15-.79.09-1.5-.17-2.13s-.65-1.2-1.16-1.72c-.51-.52-1.09-1-1.74-1.44l-1.46-1-6.21,9.07Z"/>
      <path fill="currentColor" d="m136.27,452.36l14.87-12.53,4.14,2.3-2.83,19.24-4.09-2.28.63-3.36-6.09-3.39-2.53,2.3-4.09-2.28Zm9.34-2.5l4.04,2.25,1.32-7.18-5.36,4.93Z"/>
      <path fill="currentColor" d="m156.84,463.47l7.3-16.66,6.41,2.81c1.45.63,2.68,1.34,3.69,2.12,1.01.78,1.69,1.69,2.02,2.73s.19,2.24-.41,3.62c-.28.63-.67,1.21-1.17,1.73s-1.16.91-1.96,1.18c-.8.26-1.79.3-2.98.12l1.9,8.83-4.56-2-1.76-8.26-1.77-.78-2.75,6.28-3.94-1.73Zm8.13-7.85l2.59,1.14c.93.41,1.76.63,2.49.66.73.03,1.26-.33,1.6-1.1.34-.78.25-1.43-.26-1.94-.52-.51-1.24-.98-2.17-1.38l-2.59-1.14-1.65,3.76Z"/>
      <path fill="currentColor" d="m176.72,471.77l1.1-3.19,2.42.83,3.72-10.81-2.42-.83,1.1-3.19,8.85,3.05-1.1,3.19-2.37-.82-3.72,10.81,2.37.82-1.1,3.19-8.85-3.05Z"/>
      <path fill="currentColor" d="m196.29,477.94l3.6-13.94-5.67-1.46.95-3.66,15.47,4-.95,3.66-5.67-1.46-3.6,13.94-4.14-1.07Z"/>
      <path fill="currentColor" d="m217.59,482.58l1.11-6.99-5.12-12.06,4.95.79,2.91,7.55,5.1-6.27,4.97.79-8.6,9.88-1.11,6.99-4.22-.67Z"/>
      <path fill="currentColor" d="m244.22,485.6l7.18-18.07,4.74.08,6.59,18.29-4.68-.08-1.04-3.26-6.97-.11-1.14,3.22-4.68-.08Zm7.05-6.61l4.63.08-2.23-6.95-2.4,6.88Z"/>
      <path fill="currentColor" d="m267.63,485.62l-1.56-18.12,5.45-.47,8.11,12.31-1.11-12.91,4.15-.36,1.56,18.12-5.48.47-8.11-12.31,1.11,12.91-4.12.35Z"/>
      <path fill="currentColor" d="m290.15,483.39l-3.32-17.88,5.89-1.09c1.46-.27,2.85-.38,4.16-.32,1.31.06,2.5.35,3.57.86,1.06.51,1.97,1.3,2.71,2.35.74,1.05,1.27,2.43,1.58,4.12.32,1.71.32,3.19,0,4.43-.32,1.24-.88,2.29-1.69,3.15-.81.86-1.82,1.55-3.02,2.08-1.2.53-2.54.93-4,1.2l-5.89,1.09Zm3.57-4.34l1.74-.32c.77-.14,1.49-.34,2.17-.6s1.27-.62,1.76-1.09.84-1.09,1.02-1.87c.19-.77.17-1.75-.04-2.93-.22-1.18-.56-2.1-1.01-2.76-.45-.66-1-1.13-1.63-1.39s-1.31-.39-2.04-.4c-.73,0-1.48.07-2.25.21l-1.74.32,2,10.81Z"/>
      <path fill="currentColor" d="m323.24,475.89l-5.87-17.21,6.62-2.26c1.49-.51,2.88-.81,4.16-.9,1.28-.09,2.4.15,3.35.73.95.58,1.69,1.62,2.2,3.13.51,1.49.56,2.77.16,3.81-.4,1.05-1.14,1.93-2.21,2.64-1.07.71-2.35,1.32-3.85,1.83l-2.55.87,2.04,5.98-4.07,1.39Zm.88-10.74l2.68-.91c.64-.22,1.19-.47,1.65-.76.47-.29.79-.65.98-1.08.19-.43.18-.94-.02-1.54-.21-.6-.51-1.01-.92-1.23-.41-.21-.89-.29-1.43-.23-.54.06-1.14.2-1.77.42l-2.68.91,1.51,4.43Z"/>
      <path fill="currentColor" d="m342.61,469.02l-7.42-16.6,6.39-2.85c1.44-.64,2.79-1.08,4.05-1.3,1.26-.23,2.38-.11,3.37.34.99.45,1.79,1.37,2.4,2.74.28.63.44,1.31.49,2.03.05.73-.1,1.47-.44,2.24-.34.77-.98,1.53-1.92,2.29l7.81,4.53-4.55,2.03-7.3-4.25-1.76.79,2.8,6.26-3.93,1.75Zm-.34-11.3l2.58-1.15c.93-.42,1.65-.88,2.16-1.4s.6-1.16.26-1.92c-.35-.78-.89-1.15-1.62-1.11-.73.04-1.56.26-2.48.68l-2.58,1.15,1.68,3.75Z"/>
      <path fill="currentColor" d="m361.53,460.36l-3.02-19.21,4.12-2.35,14.99,12.39-4.07,2.32-2.55-2.28-6.06,3.45.66,3.35-4.07,2.32Zm2.7-9.28l4.02-2.29-5.46-4.85,1.44,7.14Z"/>
      <path fill="currentColor" d="m388.26,444.3c-1.55,1.08-3.1,1.7-4.65,1.85-1.55.15-3.03-.14-4.44-.89-1.41-.75-2.66-1.91-3.76-3.48s-1.75-3.16-1.93-4.74c-.19-1.58.06-3.09.75-4.51.69-1.42,1.8-2.67,3.33-3.74,1.41-.99,2.86-1.53,4.35-1.64,1.49-.11,2.88.17,4.18.83l-2.33,3.32c-.75-.38-1.5-.51-2.25-.37s-1.43.41-2.04.84c-.68.48-1.18,1.1-1.48,1.88-.3.77-.36,1.64-.19,2.59s.62,1.93,1.32,2.94c1.09,1.56,2.28,2.5,3.58,2.83,1.3.32,2.48.11,3.53-.62.57-.39,1.07-.92,1.5-1.58s.6-1.43.5-2.31l3.9-1.03c.14,1.47-.12,2.9-.78,4.28s-1.7,2.56-3.11,3.55Z"/>
      <path fill="currentColor" d="m402.42,433.09l-9.28-11.01-4.47,3.77-2.44-2.89,12.22-10.3,2.44,2.89-4.47,3.77,9.28,11.01-3.27,2.76Z"/>
      <path fill="currentColor" d="m413.99,422.89l-2.37-2.4,1.82-1.8-8.03-8.14-1.82,1.8-2.37-2.4,6.67-6.58,2.37,2.4-1.78,1.76,8.03,8.14,1.78-1.76,2.37,2.4-6.67,6.58Z"/>
      <path fill="currentColor" d="m430.45,406.04c-1.24,1.43-2.59,2.4-4.06,2.93-1.47.53-2.97.6-4.52.22-1.54-.38-3.04-1.2-4.5-2.46-1.45-1.26-2.46-2.64-3.03-4.13-.57-1.49-.69-3.01-.37-4.56s1.09-3.03,2.32-4.44c1.13-1.3,2.4-2.19,3.82-2.65,1.41-.47,2.83-.54,4.26-.22l-1.45,3.79c-.82-.19-1.58-.12-2.27.19-.69.31-1.28.75-1.77,1.31-.55.63-.87,1.36-.97,2.18-.1.82.05,1.68.45,2.55.4.88,1.07,1.72,2,2.53,1.44,1.25,2.83,1.87,4.17,1.87,1.34,0,2.43-.49,3.27-1.47.45-.52.81-1.15,1.07-1.9.26-.75.24-1.53-.08-2.36l3.53-1.95c.5,1.39.59,2.84.29,4.34-.3,1.5-1.02,2.9-2.15,4.21Z"/>
      <path fill="currentColor" d="m438.44,395.84l-14.74-10.65,8.19-11.34,3.07,2.22-5.68,7.86,2.56,1.85,3.46-4.79,3.07,2.22-3.46,4.79,2.98,2.15,5.68-7.86,3.07,2.22-8.19,11.34Z"/>
    </g>
    <path fill="currentColor" d="m256,512c-68.38,0-132.67-26.63-181.02-74.98C26.63,388.67,0,324.38,0,256S26.63,123.33,74.98,74.98C123.33,26.63,187.62,0,256,0s132.67,26.63,181.02,74.98c48.35,48.35,74.98,112.64,74.98,181.02s-26.63,132.67-74.98,181.02c-48.35,48.35-112.64,74.98-181.02,74.98Zm0-509.73C116.09,2.27,2.27,116.09,2.27,256s113.82,253.73,253.73,253.73,253.73-113.82,253.73-253.73S395.91,2.27,256,2.27Z"/>
    <g class="has-mask">
      <g>
        <path fill="currentColor" d="m50.33,267.15l-30.07-12.09.16-7.89,30.54-10.86-.16,7.8-5.44,1.7-.24,11.61,5.36,1.92-.16,7.8Zm-10.97-11.8l.16-7.71-11.6,3.67,11.44,4.05Z"/>
        <path fill="currentColor" d="m51.17,235.15l-29.88-5.06,1.52-8.99,23.25-7.94-21.29-3.61,1.16-6.84,29.88,5.06-1.53,9.04-23.25,7.94,21.29,3.61-1.15,6.8Z"/>
        <path fill="currentColor" d="m57.01,204.28l-5.39-1.62,1.23-4.08-18.25-5.48-1.23,4.08-5.39-1.62,4.49-14.95,5.39,1.62-1.2,4,18.25,5.48,1.2-4,5.39,1.62-4.49,14.95Z"/>
        <path fill="currentColor" d="m62.16,185.77l-27.53-12.67,4.5-9.77,22.38,3.36-17.07-14.9,4.5-9.77,27.53,12.67-2.92,6.35-21.64-9.96,18.62,16.51-2.47,5.36-24.64-3.45,21.64,9.96-2.9,6.31Z"/>
        <path fill="currentColor" d="m77.1,153.84l-18.67-26.49,4.42-6.54,31.54,7.47-4.37,6.46-5.49-1.52-6.51,9.62,3.46,4.53-4.37,6.46Zm-2.8-15.86l4.32-6.39-11.73-3.22,7.41,9.61Z"/>
        <path fill="currentColor" d="m95.44,127.48l-22.69-20.1,4.75-5.37,17.97,15.92,9.63-10.87,4.72,4.18-14.38,16.23Z"/>
        <path fill="currentColor" d="m132.35,91.66l-17.02-25.08,5.93-4.03,13.48,19.86,12.01-8.15,3.54,5.22-17.94,12.18Z"/>
        <path fill="currentColor" d="m152.52,78.36l-2.65-4.96,3.76-2.01-8.97-16.81-3.76,2.01-2.65-4.96,13.77-7.35,2.65,4.96-3.68,1.97,8.97,16.81,3.68-1.97,2.65,4.96-13.77,7.35Z"/>
        <path fill="currentColor" d="m169.55,69.2l-11.04-28.23,12.34-4.83c2.06-.8,3.97-1.32,5.73-1.54,1.77-.22,3.33.01,4.68.7,1.36.69,2.42,2.02,3.19,3.99.51,1.3.66,2.55.47,3.76-.19,1.21-.7,2.35-1.51,3.42,1.5-.07,2.86.24,4.09.93,1.23.69,2.18,1.89,2.85,3.61.83,2.11,1.02,3.99.57,5.62-.45,1.64-1.42,3.08-2.91,4.33-1.49,1.25-3.38,2.32-5.66,3.21l-12.8,5.01Zm0-19.68l5.87-2.3c1.13-.44,1.91-1.05,2.34-1.81.43-.77.47-1.59.13-2.46-.35-.9-.94-1.47-1.77-1.72-.83-.24-1.8-.15-2.93.29l-5.87,2.3,2.23,5.7Zm4.51,11.54l6.17-2.41c1.44-.56,2.4-1.27,2.89-2.13.49-.86.55-1.78.16-2.77-.39-.99-1.05-1.62-1.99-1.9-.94-.28-2.13-.14-3.56.42l-6.17,2.41,2.5,6.38Z"/>
        <path fill="currentColor" d="m195.76,59.25l-7.27-29.42,22.64-5.59,1.51,6.12-15.68,3.87,1.26,5.11,9.56-2.36,1.51,6.12-9.56,2.36,1.47,5.95,15.68-3.87,1.51,6.12-22.64,5.59Z"/>
        <path fill="currentColor" d="m220.38,53.27l-3.34-30.12,11.59-1.28c2.62-.29,4.98-.29,7.1,0,2.12.28,3.84,1.04,5.18,2.26,1.34,1.22,2.14,3.08,2.42,5.58.13,1.14.04,2.3-.25,3.47-.3,1.17-.91,2.29-1.85,3.33-.93,1.05-2.34,1.93-4.2,2.66l10.09,11.16-8.25.91-9.42-10.46-3.2.35,1.26,11.36-7.13.79Zm5.21-18.11l4.69-.52c1.68-.19,3.07-.56,4.14-1.12,1.08-.56,1.54-1.53,1.39-2.92-.16-1.41-.82-2.27-2-2.59-1.18-.31-2.61-.37-4.29-.19l-4.69.52.75,6.81Z"/>
        <path fill="currentColor" d="m247.89,50.19l12.53-29.89,7.89.28,10.41,30.69-7.8-.27-1.63-5.46-11.61-.41-2,5.33-7.8-.27Zm11.95-10.8l7.71.27-3.5-11.65-4.21,11.38Z"/>
        <path fill="currentColor" d="m285.36,52.65l3.81-23.7-9.63-1.55,1-6.23,26.29,4.23-1,6.23-9.63-1.55-3.81,23.7-7.03-1.13Z"/>
        <path fill="currentColor" d="m304.32,56.16l1.53-5.42,4.11,1.16,5.17-18.34-4.1-1.16,1.53-5.42,15.02,4.23-1.53,5.42-4.02-1.13-5.17,18.34,4.02,1.13-1.53,5.41-15.02-4.23Z"/>
        <path fill="currentColor" d="m335.63,67.19c-2.84-1.2-5.1-2.86-6.76-4.98-1.67-2.12-2.65-4.52-2.96-7.21-.31-2.69.15-5.49,1.38-8.38,1.22-2.9,2.91-5.17,5.05-6.83,2.14-1.66,4.56-2.62,7.24-2.9,2.68-.28,5.44.18,8.28,1.38,2.87,1.21,5.14,2.88,6.81,4.99,1.67,2.12,2.66,4.52,2.98,7.22.32,2.7-.13,5.49-1.35,8.39-1.22,2.9-2.92,5.17-5.07,6.82-2.16,1.65-4.58,2.61-7.26,2.89-2.68.28-5.45-.19-8.32-1.4Zm2.3-5.43c1.36.58,2.76.77,4.19.57,1.43-.2,2.77-.82,4.02-1.87,1.25-1.05,2.29-2.56,3.13-4.54.84-1.98,1.19-3.78,1.08-5.41-.12-1.63-.6-3.02-1.46-4.19-.85-1.17-1.96-2.04-3.33-2.61-1.34-.57-2.72-.75-4.15-.55-1.43.2-2.77.82-4.02,1.87-1.25,1.05-2.29,2.56-3.13,4.54-.84,1.98-1.2,3.78-1.08,5.41.12,1.63.6,3.02,1.46,4.19.85,1.17,1.95,2.03,3.29,2.6Z"/>
        <path fill="currentColor" d="m352.5,74.1l16-25.74,7.75,4.81-1.46,24.52,11.4-18.34,5.9,3.67-16,25.74-7.78-4.84,1.46-24.52-11.4,18.34-5.86-3.64Z"/>
        <path fill="currentColor" d="m407.61,118.22c-2.22-2.44-3.59-4.94-4.11-7.51-.52-2.57-.21-5.02.95-7.34l6.14,3.24c-.79,1.29-1.05,2.6-.78,3.93.27,1.33.97,2.61,2.09,3.84.59.65,1.23,1.21,1.93,1.68.69.47,1.4.75,2.11.84.71.09,1.36-.13,1.94-.66.78-.71,1.04-1.65.79-2.81-.26-1.16-.82-2.44-1.7-3.85l-1.94-3.21c-.85-1.43-1.5-2.9-1.95-4.39-.44-1.5-.53-2.94-.26-4.33.27-1.39,1.04-2.67,2.31-3.83,1.21-1.1,2.5-1.77,3.88-2,1.38-.24,2.77-.14,4.18.27,1.4.42,2.76,1.06,4.05,1.92,1.3.86,2.46,1.85,3.48,2.97,1.1,1.21,2,2.53,2.69,3.96.69,1.43,1.1,2.92,1.21,4.46.11,1.54-.2,3.07-.94,4.6l-6.11-3.21c.49-.98.6-2.03.32-3.15-.28-1.12-.9-2.2-1.86-3.25-.94-1.03-1.9-1.72-2.89-2.06-.99-.35-1.83-.2-2.52.43-.56.51-.83,1.18-.8,2.02.03.84.3,1.71.84,2.61l2.15,3.57c.66,1.08,1.27,2.22,1.85,3.41.58,1.19,1,2.4,1.26,3.61.26,1.21.24,2.41-.07,3.59-.31,1.18-1.05,2.31-2.21,3.37-1.19,1.08-2.49,1.77-3.92,2.07-1.43.3-2.87.28-4.32-.06s-2.85-.91-4.19-1.74-2.54-1.82-3.6-2.98Z"/>
        <path fill="currentColor" d="m424.86,139.99c-2.69-3.91-3.67-7.33-2.92-10.24.75-2.92,3.04-5.7,6.87-8.34l14.05-9.67,4.07,5.9-14.54,10.01c-1.22.84-2.21,1.69-2.95,2.55-.75.86-1.13,1.81-1.15,2.86-.02,1.04.44,2.25,1.39,3.62.94,1.37,1.9,2.23,2.87,2.57.97.34,1.99.32,3.06-.07,1.07-.39,2.22-1,3.44-1.85l14.54-10.01,4.07,5.9-14.05,9.67c-3.84,2.64-7.26,3.78-10.26,3.43-3-.36-5.83-2.47-8.49-6.33Z"/>
        <path fill="currentColor" d="m434.4,152.7l27.39-12.98,4.6,9.72-16.94,15,22.38-3.52,4.6,9.72-27.39,12.98-2.99-6.31,21.53-10.2-24.62,3.68-2.52-5.33,18.46-16.68-21.53,10.2-2.97-6.27Z"/>
        <path fill="currentColor" d="m449.99,186.17l29.28-7.85,2.78,10.39-19.36,11.72,22.65.55,2.78,10.39-29.28,7.85-1.81-6.75,23.01-6.17-24.88-.8-1.53-5.7,21.15-13.09-23.01,6.17-1.8-6.71Z"/>
        <path fill="currentColor" d="m458.89,222.84l5.58-.69.52,4.23,18.91-2.33-.52-4.23,5.58-.69,1.91,15.49-5.58.69-.51-4.14-18.91,2.33.51,4.14-5.58.69-1.91-15.49Z"/>
        <path fill="currentColor" d="m461.34,250.43l24-.39-.16-9.75,6.31-.1.43,26.63-6.31.1-.16-9.75-24,.39-.12-7.12Z"/>
      </g>
    </g>
    <path fill="currentColor" d="m256,445.94c-50.74,0-98.43-19.76-134.31-55.63-35.88-35.88-55.63-83.57-55.63-134.31,0-48.09,18-93.96,50.7-129.19l1.66,1.54c-32.3,34.8-50.09,80.13-50.09,127.64,0,103.48,84.19,187.67,187.67,187.67,41.2,0,80.3-13.1,113.07-37.87l1.37,1.81c-33.17,25.08-72.74,38.33-114.44,38.33Z"/>
    <path fill="currentColor" d="m398.5,381.59l-1.7-1.5c30.23-34.27,46.88-78.34,46.88-124.09,0-74.26-43.89-141.67-111.83-171.72l.92-2.07c68.75,30.41,113.18,98.63,113.18,173.79,0,46.3-16.85,90.9-47.44,125.59Z"/>
    <path fill="currentColor" d="m175.09,86.61l-.98-2.05c25.67-12.28,53.22-18.51,81.89-18.51,6.63,0,13.32.35,19.87,1.03l-.23,2.26c-6.47-.67-13.08-1.01-19.63-1.01-28.33,0-55.55,6.15-80.91,18.29Z"/>
  </g>
  <g>
    <path fill="currentColor" d="m249.23,402.02l8.39.73s-3.92-4.55-7.13-9.62c-3.21-5.07-4.8-10.73-4.8-10.73-4.47-5.46-12.37-17.19-14.4-19.7-1.16-1.43-4.34-4.63-9.06-5.53-3.55-.67-8.09-.23-12.55,1.06-13.74,3.95-11.79,15.41-11.79,15.41,0,0,8.32,12.67,9.1,20.73.44,4.53-.16,8.7-.16,8.7,0,0,2.85-1.26,4.32-3.31,2.34-3.28,1.8-9.93,1.8-9.93,0,0,3.45,14.1,14.97,18.1,7.88,2.73,23.28-1.88,23.28-1.88,0,0-7.37-6.66-9.72-9.64-2.35-2.98-2.74-9.48-2.74-9.48,0,0,1.88,5.26,4.62,9,2.66,3.64,5.88,6.1,5.88,6.1Z"/>
    <path fill="currentColor" d="m210.98,356.17c14.37-4.78,19.28,3.25,19.28,3.25,0,0,1.72-.24,1.57-2.66s-4.84-8.68-15.21-8.15c-11.91.61-23.64,9.17-25.24,13.52-3.53,9.6,4.82,11.64,4.82,11.64,0,0-4.7-11.11,14.78-17.59Z"/>
    <path fill="currentColor" d="m262.71,396.33s-3.06-.63-7.68-3.57-4.98-8.27-4.68-10.93,7.13-2.77,13.22,2.13,5.09,16.09,5.09,16.09c0,0,9.76-7.96-.35-18.66-10.11-10.7-24.3-3.79-24.3-3.79l2.9,4.03s2.31,6,3.8,9.56,8,10.61,8,10.61l3.15.14s-.15-1.59-.03-2.58c.2-1.65.87-3.03.87-3.03Z"/>
    <path fill="currentColor" d="m269.21,404.56c-2.35-5.09-.82-6.46-1.53-10.58-.29-1.72-.94-2.54-.94-2.54,0,0-2.9,3.67-3.64,7.4-2.63,13.13,14.74,17.13,14.74,17.13l-1.27-3.18,4.72-1.72s-9.72-1.41-12.07-6.51Z"/>
    <path fill="currentColor" d="m281.12,393.37c2.04.67,6.39,3.49,6.39,3.49l2.36-.77-1.69-4.34s-2.74-2.55-6.86-3.34-7.84-.23-7.84-.23c0,0,.27,1.61.27,3.06s-.55,2.78-.55,2.78c0,0,4-1.92,7.91-.64Z"/>
    <path fill="currentColor" d="m364.13,352.82c-29.94,5.96-12.66,20.15-12.66,20.15,0,0-.81-11.8,13.6-14.5,16.02-3,20.18,7.55,20.18,7.55,2.38-3.1,2.42-6.65-2.52-9.55-4.9-2.89-6.65-6.02-18.61-3.64Z"/>
    <path fill="currentColor" d="m382,364.51s-4.39-4-12.53-4.74c-8.14-.75-15.22,7.17-15.92,11.4-.71,4.23,3.37,8.15,3.37,8.15,0,0-.39,4.39,0,7.33s4.08,9.28,4.08,9.28l1.96-8.4s-.16,2.85,1.33,8.4c1.49,5.55,17.64,11.69,21.08,11.53,3.45-.16,9.41,1.34,9.41,1.34,0,0-4.15-12-5.33-14.74-1.18-2.74-3.92-7.82-3.92-7.82,0,0,2.82,3.35,4,4.81,1.18,1.46,3.76,8.11,3.76,8.11l11.99,5.48s-11.84-21.87-16.38-27.51c-4.55-5.64-6.9-12.62-6.9-12.62Z"/>
    <path fill="currentColor" d="m346.9,369.43s-4.79,2.4-7.85,5.85c-6.32,7.12-.85,13.79-.85,13.79,0,0,1.31-.43,1.94-.95.62-.52.97-1.08.97-1.08,0,0-3.38-4.03.41-8.88,3.79-4.85,7.72-5.95,7.72-5.95,0,0-.4-.76-.94-1.48-.61-.82-1.4-1.3-1.4-1.3Z"/>
    <path fill="currentColor" d="m346.18,389.94c1.91-2.03,3.07-6.75,1.58-8.64-2.01-2.55-5.28-2.05-5.28-2.05,0,0-.64.43-1.12,1.52-.47,1.09-.47,1.64-.47,1.64,0,0,2.91-.27,3.12,1.36.11.88-1.1,4.86-5.76,7.33-4.66,2.47-8.6,3.35-8.6,3.35,0,0-.04,1.41-.18,2.23-.14.82-.63,2.06-.63,2.06,10.97-2.82,14.4-5.69,17.34-8.8Z"/>
    <path fill="currentColor" d="m327.18,386.31c5.43-2.34,7.88-2.38,7.88-2.38,0,0,.03-1.36.12-1.9s.28-1.48.28-1.48c0,0-6.81.69-9.91,2.65-16.59,10.49-4.1,15.83-4.1,15.83,0,0-3.12-8.89,5.73-12.7Z"/>
    <path fill="currentColor" d="m323.73,390.14c-1.18,1.5-1.45,2.9-1.45,2.9,0,0,2.22,5.53-3.36,11.57-5.58,6.05-12.17,5.86-12.17,5.86l4.91,1.26-2.08,2.62s6.02-1.18,12.36-6.55c11.88-10.06,4.59-19.58,4.59-19.58,0,0-1.54.31-2.8,1.92Z"/>
    <path fill="currentColor" d="m310.77,392.8c2.33-1.06,5.11-1.67,5.11-1.67,0,0,.75-1.72,2.04-3.43,1.42-1.87,4.35-3.78,4.35-3.78,0,0-3.55-.32-9.97,1.64-6.43,1.96-10.84,6.76-10.84,6.76l5.72-1.41-1.69,5.17s2.94-2.23,5.27-3.29Z"/>
    <polygon fill="currentColor" points="299.81 376.05 292.67 384.92 295.29 394.26 299.81 376.05"/>
    <polygon fill="currentColor" points="277.68 428.58 289.09 411.05 277.68 421.86 277.68 428.58"/>
    <polygon fill="currentColor" points="308.07 425.25 317.18 429.13 306.01 417.02 308.07 425.25"/>
    <path fill="currentColor" d="m352.28,389.16c-1.79.66-4.13.34-4.13.34,0,0-.57,1.09-1.09,1.81-.86,1.18-1.98,1.56-1.98,1.56-.02,0,9.35.92,10.89-2.45.99-2.16-.18-4.27-.18-4.27,0,0-.8,2.01-3.51,3Z"/>
    <path fill="currentColor" d="m282.4,426.07l-8.2,8.4-.06-13.52,4.17-2.76s-7.21-1.59-11.7-4.53c-3.37-2.21-8.29-7.64-8.29-7.64,0,0-12.17,5.29-25.22,5-11.82-.27-20.4-12.17-20.4-12.17,0,0-.71,2.76-2.53,5.14-1.82,2.37-7.17,5.68-7.17,5.68,0,0,1.88-15.87-.88-22.75-1.24-3.09-5.64-11.29-5.64-11.29,0,0-3.12.24-7.05-3.47-2.69-2.53-2.65-8.47-2.65-8.47l-3.59-4.76s-10.62,10.82-25.98,9.7c-8.07-.59-13.74-1.33-20.24-9.72s-7.6-21.95-7.6-21.95c0,0-5.33,9.88-7.45,19.83-.97,4.58-2.64,14.88-5.02,26.86,34.51,37.58,84.05,61.15,139.1,61.15,4.3,0,8.57-.15,12.8-.44,2.8-2.81,8.39-8.98,13.59-18.3Z"/>
    <path fill="currentColor" d="m261.7,384.26c-3.11-2.37-9.36-3.79-10.11-2.09-.75,1.7.04,7.44,4.48,10.24,2.76,1.75,6.95,3.08,6.95,3.08,0,0,.44-1.62,1.28-2.91.84-1.29,2.1-2.45,2.1-2.45,0,0-1.47-3.41-4.7-5.88Z"/>
    <polygon fill="currentColor" points="273.21 398.2 282.4 403.23 290.39 403.7 283.02 398.88 273.21 398.2"/>
    <polygon fill="currentColor" points="313.9 399.02 306.4 400.07 299.81 404.01 307.11 402.98 313.9 399.02"/>
    <polygon fill="currentColor" points="294.87 421.53 297.84 431.56 299.04 421.82 297.32 414.59 294.87 421.53"/>
  </g>
  <path fill="currentColor" d="m187.2,114.49c-.29.36-4.82,6.18-5.57,10.58-1.26,7.36,3.73,12.37,7.08,13.96,3.35,1.58,11.96.23,14.49-.88,2.53-1.12,5.67-2.86,8.26-2.77s15.08,6.12,19.52-7.52c4.43-13.64-12.79-27.92-19.79-29.66-3.44-.85-9.84-2-15.34,1.97s-6.55,10.08-6.55,10.08c2.91-5.78,5.43-9.76,10.75-10.9,7.94-1.71,13.7-1.65,22.28,7.52,8.59,9.17,10.42,19.07,5.65,24.81-6.94,8.35-15.21-.28-21.24,3.47-15.33,9.52-30.14-1.3-22.38-15.23,1.06-1.9,1.99-3.73,2.84-5.43Zm-9.02,200.46c.49-.14,3.73-.91,10.27.02,7.14,1.02,15.45,10.35,19.13,14.89,3.68,4.55,11.99,17.03,11.99,17.03,0,0-4.23-1.23-13.87,1.67-9.64,2.9-17.6,12.73-17.6,12.73,0,0-6.54-6.5-8.97-10.34s-4.86-9.49-4.86-9.49c0,0,1.21,7.13,3.33,10.19,2.11,3.06,4.43,5.96,4.43,5.96,0,0-10.04,10.27-22.34,9.4-12.31-.86-25.16-6.5-27.12-24.06-1.96-17.56,3.17-32.16,9.8-42.25,7.07-10.76,11.04-14.95,11.34-15.26-.43.31-7.33,5.4-11.33,11.03-4.29,6.03-8.69,14.89-8.69,14.89,0,0,1.23-30.41,7.34-46.08,6.12-15.68,10.19-22.34,10.9-29.63.7-7.29,4.62-15.36,4.62-15.36,0,0-1.05-10.05-.31-16.93.63-5.8,3.45-16.46,3.45-16.46,0,0-1.41-11.21-1.26-18.81.16-7.61.95-18.5,3.3-26.5,2.05-6.96,3.74-10.06,4.13-10.74-.63.96-4.11,6.3-6.88,11.06-3.05,5.25-8.46,14.73-21.08,10.19-12.62-4.55-14.13-26.97-15.75-37.47-1.89-12.15-16.23-30.33-16.23-30.33,0,0,10.74-.39,18.34-2.35s15.1-4.52,22.34-2.82c6.03,1.41,9.21,5.28,14.19,8.07,7.92,4.43,15.28,7.76,15.28,7.76,0,0,17.99-12.05,38.68-12.9,22.93-.94,36.09,6.78,42.6,5.37s14.89-13.32,25.08-17.87c10.19-4.54,25-3.77,30.18-4.7,9.64-1.72,17.01-9.8,17.01-9.8,3.37,6.27.12,17.79-2.53,22.23-4.16,7-2.17,16.45-1.16,28.72.94,11.36-4.42,31.12-18.34,35.27-15.75,4.7-32.53-15.28-32.53-15.28,0,0,3.24,14.74,8.7,27.9,7.18,17.28,5.18,30.45,5.18,30.45,0,0,3,1.24,4.46,4.25,1.59,3.25-.23,6.92-.23,6.92,0,0,9.72,12.07,10.58,17.01s-1.49,8.38.63,12.46c2.11,4.08,12.07,18.03,16.07,28.84,3.99,10.82,1.88,26.57,3.52,32.22,1.65,5.64,5.02,12.22,18.19,21.47,13.16,9.25,22.97,20.38,26.96,28.53,4.18,8.55,5.02,13.78,5.02,13.78,0,0-6.78-.59-15.51,2.17-8.73,2.77-12.88,6.32-12.88,6.32,0,0-1.89-5.63-5.22-5.89-3.33-.25-16.48,7.15-26.79,5.53-21.2-3.33-25.55-22.77-25.55-22.77,0,0,.8,13.73,11.21,20.67,0,0-.74,5.63-1.82,16.49l-8.76,9.84,3.64,10.23s-5.87-4.38-9.93-5.26-8.99-1-8.99-1c0,0-3.53-8.17-11.17-10.76-10.47-3.54-20.11.01-20.11.01l-9.99-14.59s1.85-4,0-7.11c-3.06-5.15-10.29-6.59-10.29-6.59,0,0-11.11-16.4-15.46-21.22s-11.05-9.7-11.05-9.7c0,0,.53-8.05-.59-9.64-1.09-1.54-6.48-5.19-6.77-5.38.23.24,3.93,4.03,5.07,6.62,1.17,2.66.34,7.4.34,7.4,0,0-1.7-1.95-6.01-2.35-2.56-.23-8.62,1.85-9.33,2.1Zm75.33-208.37s0-4.8-2.63-5.65c-4.93-1.58-6.64,3.26-6.64,3.26,0,0,2.39-.43,4.98.19,1.86.45,4.29,2.2,4.29,2.2Zm-36.35,12.7c3.47.94,3.7-2.05,1.88-4.88-2.42-3.77-7.2-3.53-6.7-.77.4,2.24,1.35,4.7,4.82,5.65Zm-21.81,2.76c2.75,1.22,4.76-2.41,4.7-5.17-.05-2.77-.46-4.65-3.05-3.18s-3.76,7.41-1.65,8.35Zm-15.4-8.25c2.59-1.27,4.49-1.24,4.49-1.24,0,0-1-4.27-4.94-3.5-3.94.76-3.55,7.78-3.55,7.78,0,0,2.32-2.21,4-3.04Z"/>
</svg>
