<?xml version="1.0" encoding="UTF-8"?>
<svg id="Layer_1" data-name="Layer 1" xmlns="http://www.w3.org/2000/svg" viewBox="0 0 423.75 436.26">
  <defs>
    <style>
      .cls-1 {
        fill: #1c1917;
      }
    </style>
  </defs>
  <path class="cls-1" d="m211.88,436.26c-56.59,0-109.8-22.04-149.82-62.06C22.04,334.19,0,280.98,0,224.39c0-53.64,20.08-104.81,56.55-144.1l1.86,1.72C22.37,120.83,2.53,171.39,2.53,224.39c0,115.43,93.91,209.34,209.34,209.34,45.95,0,89.57-14.61,126.12-42.24l1.53,2.02c-37,27.97-81.14,42.76-127.65,42.76Z"/>
  <path class="cls-1" d="m370.83,364.48l-1.9-1.67c33.72-38.23,52.29-87.39,52.29-138.42,0-82.84-48.96-158.02-124.74-191.54l1.02-2.31c76.69,33.92,126.25,110.02,126.25,193.86,0,51.65-18.79,101.4-52.92,140.09Z"/>
  <path class="cls-1" d="m121.62,35.44l-1.09-2.28c28.63-13.7,59.36-20.65,91.34-20.65,7.4,0,14.85.39,22.16,1.15l-.26,2.52c-7.22-.75-14.59-1.13-21.9-1.13-31.6,0-61.96,6.86-90.25,20.4Z"/>
  <g>
    <path class="cls-1" d="m204.32,387.27l9.35.81s-4.37-5.07-7.96-10.73c-3.58-5.66-5.35-11.97-5.35-11.97-4.98-6.09-13.79-19.18-16.07-21.98-1.3-1.6-4.84-5.16-10.11-6.16-3.95-.75-9.02-.25-14,1.18-15.32,4.41-13.15,17.18-13.15,17.18,0,0,9.28,14.14,10.15,23.12.49,5.05-.17,9.7-.17,9.7,0,0,3.18-1.41,4.82-3.69,2.61-3.65,2-11.08,2-11.08,0,0,3.85,15.73,16.7,20.19,8.79,3.05,25.97-2.1,25.97-2.1,0,0-8.22-7.43-10.84-10.75-2.62-3.32-3.06-10.58-3.06-10.58,0,0,2.1,5.86,5.16,10.04,2.97,4.06,6.56,6.8,6.56,6.8Z"/>
    <path class="cls-1" d="m161.66,336.12c16.03-5.33,21.5,3.62,21.5,3.62,0,0,1.92-.26,1.75-2.97s-5.4-9.68-16.96-9.09c-13.29.68-26.37,10.23-28.15,15.08-3.93,10.71,5.38,12.99,5.38,12.99,0,0-5.25-12.39,16.48-19.62Z"/>
    <path class="cls-1" d="m219.36,380.92s-3.41-.7-8.57-3.98c-5.16-3.28-5.55-9.22-5.22-12.19s7.95-3.09,14.75,2.38c6.79,5.47,5.68,17.94,5.68,17.94,0,0,10.89-8.87-.39-20.81-11.28-11.94-27.1-4.23-27.1-4.23l3.23,4.49s2.58,6.69,4.24,10.67,8.92,11.84,8.92,11.84l3.51.15s-.16-1.78-.03-2.88c.22-1.85.97-3.39.97-3.39Z"/>
    <path class="cls-1" d="m226.61,390.1c-2.62-5.68-.92-7.21-1.7-11.8-.33-1.92-1.05-2.84-1.05-2.84,0,0-3.23,4.09-4.07,8.25-2.93,14.65,16.44,19.11,16.44,19.11l-1.41-3.55,5.26-1.92s-10.84-1.57-13.46-7.26Z"/>
    <path class="cls-1" d="m239.9,377.62c2.28.74,7.13,3.89,7.13,3.89l2.63-.86-1.89-4.85s-3.06-2.85-7.65-3.73-8.74-.25-8.74-.25c0,0,.31,1.79.31,3.41s-.61,3.1-.61,3.1c0,0,4.46-2.14,8.82-.72Z"/>
    <path class="cls-1" d="m332.49,332.39c-33.4,6.65-14.12,22.48-14.12,22.48,0,0-.91-13.16,15.17-16.17,17.87-3.35,22.51,8.42,22.51,8.42,2.65-3.46,2.7-7.41-2.81-10.66-5.46-3.22-7.42-6.72-20.75-4.06Z"/>
    <path class="cls-1" d="m352.43,345.42s-4.9-4.46-13.98-5.29c-9.08-.83-16.97,8-17.76,12.72-.79,4.72,3.76,9.09,3.76,9.09,0,0-.44,4.9,0,8.18s4.55,10.35,4.55,10.35l2.19-9.37s-.17,3.18,1.49,9.37c1.66,6.2,19.67,13.04,23.52,12.86,3.85-.17,10.49,1.49,10.49,1.49,0,0-4.63-13.38-5.95-16.44-1.31-3.06-4.37-8.72-4.37-8.72,0,0,3.15,3.74,4.46,5.37,1.31,1.63,4.2,9.04,4.2,9.04l13.38,6.11s-13.2-24.39-18.27-30.69c-5.07-6.29-7.69-14.08-7.69-14.08Z"/>
    <path class="cls-1" d="m313.27,350.92s-5.34,2.68-8.76,6.53c-7.05,7.94-.95,15.38-.95,15.38,0,0,1.47-.48,2.16-1.06.69-.58,1.09-1.2,1.09-1.2,0,0-3.77-4.49.46-9.9,4.23-5.41,8.61-6.64,8.61-6.64,0,0-.44-.84-1.05-1.66-.68-.91-1.56-1.44-1.56-1.44Z"/>
    <path class="cls-1" d="m312.47,373.79c2.13-2.26,3.42-7.53,1.76-9.64-2.24-2.84-5.89-2.28-5.89-2.28,0,0-.72.48-1.25,1.69-.53,1.21-.52,1.83-.52,1.83,0,0,3.25-.31,3.48,1.52.12.98-1.23,5.42-6.43,8.17-5.2,2.76-9.59,3.74-9.59,3.74,0,0-.04,1.57-.2,2.49-.15.92-.7,2.3-.7,2.3,12.24-3.14,16.07-6.34,19.34-9.82Z"/>
    <path class="cls-1" d="m291.27,369.75c6.05-2.61,8.79-2.66,8.79-2.66,0,0,.03-1.52.13-2.12s.31-1.66.31-1.66c0,0-7.6.77-11.05,2.95-18.51,11.7-4.57,17.66-4.57,17.66,0,0-3.48-9.92,6.39-14.17Z"/>
    <path class="cls-1" d="m287.42,374.01c-1.31,1.67-1.62,3.23-1.62,3.23,0,0,2.48,6.16-3.75,12.91-6.23,6.75-13.58,6.53-13.58,6.53l5.48,1.41-2.32,2.92s6.71-1.31,13.79-7.31c13.25-11.22,5.11-21.84,5.11-21.84,0,0-1.72.34-3.13,2.14Z"/>
    <path class="cls-1" d="m272.97,376.99c2.6-1.18,5.7-1.86,5.7-1.86,0,0,.84-1.92,2.28-3.82,1.58-2.09,4.85-4.21,4.85-4.21,0,0-3.96-.36-11.13,1.83-7.17,2.19-12.09,7.54-12.09,7.54l6.38-1.57-1.88,5.77s3.28-2.49,5.88-3.67Z"/>
    <polygon class="cls-1" points="260.75 358.3 252.78 368.2 255.7 378.61 260.75 358.3"/>
    <polygon class="cls-1" points="236.06 416.9 248.79 397.34 236.06 409.4 236.06 416.9"/>
    <polygon class="cls-1" points="269.96 413.18 280.12 417.51 267.66 404 269.96 413.18"/>
    <path class="cls-1" d="m319.27,372.93c-2,.74-4.61.38-4.61.38,0,0-.63,1.22-1.22,2.02-.96,1.31-2.21,1.74-2.21,1.74-.02,0,10.43,1.03,12.15-2.73,1.1-2.41-.2-4.76-.2-4.76,0,0-.9,2.24-3.91,3.35Z"/>
    <path class="cls-1" d="m241.32,414.1l-9.14,9.37-.07-15.08,4.66-3.08s-8.04-1.77-13.05-5.05c-3.76-2.46-9.25-8.52-9.25-8.52,0,0-13.57,5.9-28.13,5.57-13.18-.3-22.75-13.57-22.75-13.57,0,0-.79,3.08-2.82,5.73-2.03,2.65-8,6.34-8,6.34,0,0,2.1-17.7-.98-25.38-1.38-3.44-6.29-12.59-6.29-12.59,0,0-3.48.26-7.87-3.87-3-2.82-2.95-9.44-2.95-9.44l-4-5.31s-11.85,12.07-28.98,10.82c-9.01-.66-15.32-1.49-22.58-10.84s-8.48-24.48-8.48-24.48c0,0-5.95,11.02-8.31,22.12-1.09,5.11-2.95,16.59-5.6,29.97,38.5,41.92,93.76,68.21,155.16,68.21,4.8,0,9.56-.17,14.28-.49,3.13-3.13,9.35-10.02,15.16-20.41Z"/>
    <path class="cls-1" d="m218.24,367.46c-3.47-2.65-10.44-4.23-11.28-2.33-.84,1.9.05,8.29,5,11.43,3.08,1.95,7.75,3.44,7.75,3.44,0,0,.49-1.8,1.43-3.25.93-1.44,2.34-2.74,2.34-2.74,0,0-1.64-3.8-5.25-6.56Z"/>
    <polygon class="cls-1" points="231.07 383 241.32 388.62 250.23 389.14 242.02 383.77 231.07 383"/>
    <polygon class="cls-1" points="276.46 383.92 268.1 385.09 260.75 389.49 268.89 388.34 276.46 383.92"/>
    <polygon class="cls-1" points="255.23 409.04 258.54 420.22 259.89 409.36 257.96 401.29 255.23 409.04"/>
  </g>
  <path class="cls-1" d="m135.13,66.54c-.32.4-5.38,6.89-6.21,11.8-1.41,8.21,4.16,13.8,7.9,15.57,3.74,1.76,13.34.26,16.16-.98,2.82-1.25,6.32-3.19,9.21-3.09s16.82,6.83,21.77-8.39c4.94-15.21-14.27-31.14-22.08-33.08-3.84-.95-10.98-2.23-17.11,2.2s-7.31,11.24-7.31,11.24c3.25-6.45,6.06-10.89,11.99-12.16,8.86-1.91,15.28-1.84,24.85,8.39,9.58,10.23,11.62,21.27,6.3,27.67-7.74,9.31-16.97-.31-23.69,3.87-17.1,10.62-33.62-1.45-24.96-16.99,1.18-2.12,2.22-4.16,3.17-6.06Zm-10.06,223.61c.55-.16,4.16-1.02,11.46.02,7.96,1.14,17.23,11.55,21.34,16.61,4.1,5.08,13.37,19,13.37,19,0,0-4.72-1.37-15.47,1.86s-19.63,14.2-19.63,14.2c0,0-7.3-7.25-10.01-11.53-2.71-4.28-5.42-10.59-5.42-10.59,0,0,1.35,7.95,3.71,11.37,2.35,3.41,4.94,6.65,4.94,6.65,0,0-11.2,11.46-24.92,10.49-13.73-.96-28.07-7.25-30.25-26.84-2.19-19.59,3.54-35.87,10.93-47.13,7.89-12,12.31-16.68,12.65-17.02-.48.35-8.18,6.02-12.64,12.3-4.79,6.73-9.69,16.61-9.69,16.61,0,0,1.37-33.92,8.19-51.4,6.83-17.49,11.37-24.92,12.16-33.05.78-8.13,5.15-17.13,5.15-17.13,0,0-1.17-11.21-.35-18.88.7-6.47,3.85-18.36,3.85-18.36,0,0-1.57-12.5-1.41-20.98.18-8.49,1.06-20.64,3.68-29.56,2.29-7.76,4.17-11.22,4.61-11.98-.7,1.07-4.58,7.03-7.67,12.34-3.4,5.86-9.44,16.43-23.51,11.37-14.08-5.08-15.76-30.08-17.57-41.8-2.11-13.55-18.1-33.83-18.1-33.83,0,0,11.98-.44,20.46-2.62,8.48-2.19,16.84-5.04,24.92-3.15,6.73,1.57,10.27,5.89,15.83,9,8.83,4.94,17.04,8.66,17.04,8.66,0,0,20.07-13.44,43.15-14.39,25.58-1.05,40.26,7.56,47.52,5.99,7.26-1.57,16.61-14.86,27.98-19.93,11.37-5.06,27.89-4.21,33.66-5.24,10.75-1.92,18.97-10.93,18.97-10.93,3.76,6.99.13,19.84-2.82,24.8-4.64,7.81-2.42,18.35-1.29,32.04,1.05,12.67-4.93,34.71-20.46,39.34-17.57,5.24-36.29-17.04-36.29-17.04,0,0,3.61,16.44,9.7,31.12,8.01,19.28,5.78,33.97,5.78,33.97,0,0,3.35,1.38,4.97,4.74,1.77,3.63-.26,7.72-.26,7.72,0,0,10.84,13.46,11.8,18.97s-1.66,9.35.7,13.9c2.35,4.55,13.46,20.11,17.93,32.17,4.45,12.07,2.1,29.64,3.93,35.94,1.84,6.29,5.6,13.63,20.29,23.95,14.68,10.32,25.62,22.73,30.07,31.82,4.66,9.54,5.6,15.37,5.6,15.37,0,0-7.56-.66-17.3,2.42-9.74,3.09-14.37,7.05-14.37,7.05,0,0-2.11-6.28-5.82-6.57-3.71-.28-18.38,7.98-29.88,6.17-23.65-3.71-28.5-25.4-28.5-25.4,0,0,.89,15.32,12.5,23.06,0,0-.83,6.28-2.03,18.39l-9.77,10.98,4.06,11.41s-6.55-4.89-11.08-5.87-10.03-1.12-10.03-1.12c0,0-3.94-9.11-12.46-12-11.68-3.95-22.43.01-22.43.01l-11.14-16.27s2.06-4.46,0-7.93c-3.41-5.74-11.48-7.35-11.48-7.35,0,0-12.39-18.29-17.25-23.67s-12.33-10.82-12.33-10.82c0,0,.59-8.98-.66-10.75-1.22-1.72-7.23-5.79-7.55-6,.26.27,4.38,4.5,5.66,7.38,1.31,2.97.38,8.25.38,8.25,0,0-1.9-2.18-6.7-2.62-2.86-.26-9.62,2.06-10.41,2.34ZM209.1,57.72s0-5.35-2.93-6.3c-5.5-1.76-7.41,3.64-7.41,3.64,0,0,2.67-.48,5.56.21,2.07.5,4.79,2.45,4.79,2.45Zm-40.55,14.17c3.87,1.05,4.13-2.29,2.1-5.44-2.7-4.21-8.03-3.94-7.47-.86.45,2.5,1.51,5.24,5.38,6.3Zm-24.33,3.08c3.07,1.36,5.31-2.69,5.24-5.77-.06-3.09-.51-5.19-3.4-3.55s-4.19,8.27-1.84,9.31Zm-17.18-9.2c2.89-1.42,5.01-1.38,5.01-1.38,0,0-1.12-4.76-5.51-3.9-4.39.85-3.96,8.68-3.96,8.68,0,0,2.59-2.47,4.46-3.39Z"/>
</svg>