<?xml version="1.0" standalone="no"?>
<!DOCTYPE svg PUBLIC "-//W3C//DTD SVG 20010904//EN"
 "http://www.w3.org/TR/2001/REC-SVG-20010904/DTD/svg10.dtd">
<svg version="1.0" xmlns="http://www.w3.org/2000/svg"
 width="700.000000pt" height="700.000000pt" viewBox="0 0 700.000000 700.000000"
 preserveAspectRatio="xMidYMid meet">
<metadata>
Created by potrace 1.14, written by Peter Selinger 2001-2017
</metadata>
<g transform="translate(0.000000,700.000000) scale(0.100000,-0.100000)"
fill="#000000" stroke="none">
<path d="M3280 6994 c-19 -2 -84 -9 -145 -14 -578 -56 -1180 -283 -1660 -625
-237 -169 -531 -446 -709 -670 -416 -521 -673 -1147 -748 -1820 -17 -155 -17
-575 0 -730 52 -469 198 -931 418 -1327 290 -523 731 -983 1239 -1294 439
-269 920 -432 1460 -496 145 -17 576 -17 730 0 822 91 1556 447 2131 1034 203
206 348 390 487 618 274 449 433 916 499 1465 16 136 16 592 0 730 -86 725
-352 1347 -803 1885 -122 145 -351 370 -494 484 -510 407 -1117 661 -1775 742
-117 15 -553 27 -630 18z m496 -445 c867 -84 1655 -520 2170 -1202 41 -54 74
-102 74 -106 0 -5 -19 -21 -41 -37 l-42 -29 -16 25 c-88 135 -345 413 -511
552 -467 393 -1037 632 -1643 689 -179 16 -534 7 -704 -19 -968 -150 -1797
-761 -2225 -1641 -33 -69 -62 -127 -63 -129 -3 -3 -84 35 -93 43 -5 4 87 195
144 297 492 882 1379 1459 2391 1557 129 12 433 13 559 0z m2648 -1364 c37
-138 0 -349 -95 -552 -74 -159 -84 -282 -49 -613 24 -221 25 -314 5 -435 -64
-399 -260 -674 -524 -735 -82 -19 -230 -8 -319 23 -152 54 -308 158 -471 313
-52 49 -91 80 -88 69 4 -11 11 -42 17 -70 37 -169 118 -421 225 -700 94 -246
136 -452 139 -688 l3 -148 30 -18 c39 -25 68 -62 89 -117 14 -37 15 -55 7 -97
-6 -29 -13 -59 -17 -68 -4 -10 4 -29 23 -52 l29 -37 107 102 c439 419 740 962
859 1553 46 223 59 386 53 645 -6 249 -24 409 -73 628 -14 62 -24 118 -22 124
5 14 90 40 100 30 12 -12 65 -254 90 -408 19 -120 22 -178 22 -424 0 -242 -3
-306 -21 -420 -70 -447 -209 -829 -433 -1189 -255 -411 -638 -792 -1028 -1023
-399 -238 -796 -372 -1252 -424 -197 -22 -587 -15 -775 14 -686 107 -1296 425
-1769 923 -542 570 -846 1322 -846 2097 l0 142 55 0 55 0 0 -162 c0 -443 102
-868 306 -1278 124 -249 238 -420 423 -633 74 -87 301 -311 307 -304 1 1 19
73 39 160 l36 158 -17 182 c-42 454 27 1062 148 1300 11 22 17 41 15 43 -5 5
-92 -128 -183 -279 -84 -140 -148 -208 -239 -253 -66 -33 -82 -37 -152 -37
-241 1 -405 148 -501 453 -40 128 -65 249 -97 470 -15 102 -37 218 -51 258
-49 149 -196 406 -359 632 l-76 105 58 7 c32 4 122 14 199 23 81 9 208 32 295
54 468 118 581 108 828 -68 53 -37 132 -88 176 -113 97 -55 381 -198 393 -198
5 0 53 25 107 56 172 99 375 183 569 234 227 60 431 78 679 61 192 -14 325
-36 585 -97 257 -61 311 -65 387 -30 66 30 101 56 250 186 169 148 226 193
307 244 170 106 372 150 773 171 159 8 225 20 314 58 88 36 230 129 286 186
21 23 42 38 46 33 5 -4 15 -34 23 -67z"/>
<path d="M2800 4055 c-112 -32 -210 -113 -267 -221 -45 -85 -51 -121 -8 -44
94 166 177 219 371 239 179 18 312 -31 460 -171 99 -94 158 -167 207 -259 109
-199 102 -391 -20 -513 -79 -80 -173 -97 -352 -62 -46 9 -97 16 -114 16 -17 0
-83 -24 -146 -54 -135 -63 -212 -81 -317 -73 -132 10 -244 80 -295 186 -31 63
-32 184 -2 256 47 113 64 158 59 162 -7 7 -72 -118 -91 -176 -38 -117 3 -268
99 -364 70 -69 96 -80 206 -85 121 -5 235 16 338 62 122 55 162 61 262 36 92
-22 194 -26 251 -10 167 47 268 275 214 483 -19 74 -71 177 -128 253 -84 110
-236 242 -347 299 -92 47 -282 67 -380 40z"/>
<path d="M4087 3976 c-30 -17 -66 -55 -67 -71 0 -6 21 -9 50 -7 56 4 108 -10
163 -45 22 -14 41 -22 44 -19 10 9 -27 113 -47 131 -27 24 -107 31 -143 11z"/>
<path d="M2157 3729 c-16 -12 -33 -41 -42 -71 -14 -49 -20 -118 -10 -118 2 0
28 18 57 40 47 36 128 70 165 70 7 0 13 3 13 6 0 15 -43 75 -60 84 -32 17 -95
12 -123 -11z"/>
<path d="M3148 3670 c-38 -23 -14 -117 41 -163 72 -60 151 -57 151 5 0 44 -36
114 -71 139 -35 25 -96 34 -121 19z"/>
<path d="M2693 3621 c-38 -24 -61 -65 -69 -125 -8 -57 1 -93 27 -107 30 -15
74 5 100 47 40 65 33 193 -11 202 -8 1 -29 -7 -47 -17z"/>
</g>
</svg>
