<?xml version="1.0" encoding="utf-8"?>
<!-- Generator: Adobe Illustrator 27.5.0, SVG Export Plug-In . SVG Version: 6.00 Build 0)  -->
<svg version="1.1" id="Layer_1" xmlns="http://www.w3.org/2000/svg" xmlns:xlink="http://www.w3.org/1999/xlink" x="0px" y="0px"
	 viewBox="0 0 512 512" style="enable-background:new 0 0 512 512;" xml:space="preserve">
<style type="text/css">
	.st0{fill:#1E3A8A;}
</style>
<path class="st0" d="M256,512C114.8,512,0,397.2,0,256S114.8,0,256,0s256,114.8,256,256S397.2,512,256,512z M256,5.8
	C118.1,5.8,5.8,118.1,5.8,256S118.1,506.2,256,506.2S506.2,393.9,506.2,256S394,5.8,256,5.8z"/>
<g>
	<path class="st0" d="M256,452.5c-108.3,0-196.5-88.1-196.5-196.5S147.7,59.5,256,59.5S452.5,147.6,452.5,256S364.3,452.5,256,452.5
		L256,452.5z M256,65.3C150.9,65.3,65.3,150.9,65.3,256S150.9,446.7,256,446.7S446.7,361.1,446.7,256S361.1,65.3,256,65.3z"/>
</g>
<g>
	<path class="st0" d="M73.2,148.5l-14.5-20.3l3.4-5.1l24.3,5.6l-3.3,5l-4.2-1.1l-5,7.4l2.7,3.5L73.2,148.5L73.2,148.5z M71,136.3
		l3.3-4.9l-9.1-2.4L71,136.3z"/>
	<path class="st0" d="M89,125.6l-13.2-11.2l3-3.6l2.2,1c-0.2-0.7-0.3-1.6-0.2-2.7c0.1-1.1,0.6-2.2,1.5-3.2c1.4-1.7,2.9-2.5,4.4-2.3
		c1.5,0.2,3.1,1,4.9,2.5l8.1,6.8l-3.4,4.1l-7-6c-0.6-0.5-1.2-1-1.8-1.3c-0.6-0.4-1.1-0.5-1.7-0.5s-1.1,0.3-1.7,1
		c-0.7,0.8-0.9,1.7-0.7,2.6c0.3,0.9,1,1.9,2.2,2.9l6.8,5.8L89,125.6L89,125.6z"/>
	<path class="st0" d="M92.6,91.4c-0.6,0.6-1.3,0.9-2.2,0.9s-1.6-0.3-2.2-0.9c-0.6-0.6-0.9-1.4-0.9-2.2c0-0.9,0.3-1.6,0.9-2.2
		c0.6-0.6,1.4-0.9,2.2-0.9s1.6,0.3,2.2,0.9c0.6,0.6,0.9,1.3,0.9,2.2S93.2,90.8,92.6,91.4L92.6,91.4z M105,107.6l-9.4-9.4l-2.3,2.3
		l-2.9-2.9l6.1-6.1l12.3,12.2L105,107.6L105,107.6z"/>
	<path class="st0" d="M112.5,99.8l-10.9-13.5l3.6-2.9l2,1.4c-0.1-0.8,0-1.7,0.3-2.7c0.3-1,1-2,2-2.8c1.1-0.9,2.1-1.4,3-1.5
		s1.9,0,2.8,0.5c-0.1-1.2,0.1-2.3,0.6-3.3c0.5-1,1.2-1.9,2.2-2.7c1.7-1.4,3.3-1.9,4.7-1.4c1.4,0.4,2.9,1.6,4.4,3.4l6.6,8.2l-4.1,3.3
		l-5.8-7.2c-0.5-0.6-1-1.2-1.5-1.7s-1-0.7-1.6-0.8c-0.6-0.1-1.2,0.2-1.8,0.7c-0.8,0.7-1.2,1.5-1.1,2.3c0.1,0.9,0.6,1.9,1.6,3.1
		l5.8,7.1l-4.2,3.4l-5.8-7.2c-0.5-0.6-1-1.2-1.5-1.7s-1-0.8-1.5-0.8s-1.1,0.1-1.8,0.7c-0.8,0.7-1.2,1.5-1.1,2.4
		c0.1,0.9,0.6,2,1.6,3.2l5.7,7L112.5,99.8L112.5,99.8z"/>
	<path class="st0" d="M143.2,77.3c-0.9,0.6-1.9,0.9-2.9,1s-1.9,0-2.8-0.4c-0.9-0.4-1.6-1-2.1-1.9c-0.7-1.2-0.9-2.4-0.5-3.7
		c0.4-1.2,1.2-2.5,2.5-3.7s2.8-2.5,4.6-3.8c-0.6-1-1.3-1.7-1.9-1.9s-1.4,0-2.4,0.5c-0.6,0.4-1.1,0.9-1.4,1.4
		c-0.3,0.6-0.3,1.2-0.1,1.9l-4.6,1c-0.1-1.3,0.2-2.6,1-4c0.8-1.4,2-2.6,3.7-3.6c2.1-1.3,4-1.8,5.7-1.6c1.7,0.2,3.2,1.5,4.6,3.7
		l2,3.2c0.4,0.6,0.8,1.3,1.3,2s1,1.4,1.5,2s0.9,1.1,1.3,1.5l-4.2,2.6l-1.6-1.5c-0.1,1.1-0.4,2.1-1.1,2.9S144.2,76.7,143.2,77.3
		L143.2,77.3z M142.9,73.2c0.9-0.6,1.5-1.2,1.8-2.1c0.3-0.8,0-1.9-0.8-3.3l-0.2-0.4c-1.5,1.1-2.6,2.1-3.4,3s-0.9,1.7-0.4,2.5
		c0.3,0.5,0.7,0.7,1.3,0.8S142.3,73.6,142.9,73.2L142.9,73.2z"/>
	<path class="st0" d="M162.4,66.1c-1.3,0.6-2.3,1-3.2,1.2s-1.6,0-2.2-0.5s-1.3-1.3-1.9-2.5l-8.3-16.5l4.7-2.4l7.7,15.2
		c0.4,0.7,0.8,1.1,1.1,1.2s1-0.1,1.8-0.5l1.3-0.7l1.9,3.9L162.4,66.1L162.4,66.1z"/>
	<path class="st0" d="M181.6,57.6l-7.4-22.1l5.2-1.8l5.9,17.5l10.6-3.5l1.5,4.6L181.6,57.6L181.6,57.6z"/>
	<path class="st0" d="M203.5,50.9L200.3,38l-3.2,0.8l-1-3.9l8.4-2.1l4.2,16.8L203.5,50.9L203.5,50.9z M201.3,30.6
		c-0.8,0.2-1.6,0.1-2.4-0.4s-1.2-1.1-1.4-1.9c-0.2-0.9-0.1-1.7,0.4-2.4s1.1-1.2,1.9-1.4c0.9-0.2,1.6-0.1,2.4,0.3
		c0.7,0.4,1.2,1.1,1.4,2c0.2,0.8,0.1,1.6-0.4,2.4S202.1,30.4,201.3,30.6L201.3,30.6z"/>
	<path class="st0" d="M224.7,47c-0.9,0.1-1.9,0.1-3-0.2c-1.1-0.3-2-0.8-2.7-1.7l-0.3,2.4l-4.6,0.7l-3.6-23l5.2-0.8l1.3,8.3
		c0.4-1,1.1-1.9,2-2.5s1.9-1,2.8-1.2c1.5-0.2,2.8-0.1,4.1,0.5s2.3,1.4,3.2,2.6c0.9,1.2,1.4,2.8,1.7,4.6c0.3,1.9,0.2,3.5-0.2,5
		s-1.1,2.7-2.2,3.6C227.4,46.2,226.2,46.8,224.7,47L224.7,47z M222.4,43.2c1-0.2,1.8-0.7,2.4-1.7c0.6-1,0.8-2.3,0.5-3.9
		c-0.2-1.6-0.8-2.7-1.7-3.4s-1.8-1-2.8-0.8c-1,0.2-1.9,0.7-2.5,1.6c-0.6,0.9-0.8,2.2-0.5,4c0.3,1.8,0.9,3,1.7,3.6
		S221.4,43.4,222.4,43.2L222.4,43.2z"/>
	<path class="st0" d="M245.5,45c-1.9,0.1-3.5-0.2-5-0.8c-1.5-0.7-2.6-1.7-3.5-3s-1.4-3-1.4-4.9c-0.1-1.8,0.2-3.5,1-4.8
		s1.9-2.5,3.2-3.3c1.4-0.8,2.9-1.3,4.6-1.4c1.9-0.1,3.6,0.3,5,1.1c1.4,0.8,2.5,2,3.3,3.5c0.8,1.5,1.2,3.3,1.1,5.4L241,37.5
		c0.2,1.2,0.6,2.1,1.5,2.7s1.7,0.8,2.7,0.8c0.8,0,1.5-0.2,2.1-0.5s1-0.6,1.3-1l4.3,1.3c-0.8,1.4-1.9,2.4-3.2,3.1
		C248.3,44.5,247,44.9,245.5,45L245.5,45z M240.8,34.3l7.9-0.4c-0.1-1.1-0.5-1.9-1.3-2.5c-0.8-0.5-1.7-0.8-2.7-0.7
		c-1,0-1.9,0.4-2.6,0.9S240.9,33.1,240.8,34.3z"/>
	<path class="st0" d="M259,44.3l0.6-17.3l4.2,0.1l0.8,3.2c0.6-1.4,1.4-2.3,2.3-2.9c1-0.5,2.1-0.7,3.4-0.6l-0.2,5.3
		c-0.3-0.1-0.5-0.1-0.7-0.1c-0.2,0-0.4,0-0.7,0c-1.3,0-2.3,0.2-3,0.8c-0.7,0.6-1.1,1.6-1.1,2.9l-0.3,8.7L259,44.3L259,44.3z"/>
	<path class="st0" d="M278.8,45.9c-1.1-0.1-2.1-0.5-2.9-1s-1.5-1.2-1.9-2c-0.4-0.8-0.6-1.7-0.5-2.8c0.2-1.4,0.8-2.5,1.9-3.2
		c1.1-0.7,2.5-1.2,4.3-1.4c1.8-0.2,3.8-0.3,6-0.2c0.1-1.2,0.1-2.1-0.3-2.7s-1.1-0.9-2.2-1c-0.7-0.1-1.4,0-2,0.3
		c-0.6,0.3-1,0.7-1.3,1.4l-4.2-2.1c0.7-1.1,1.8-1.9,3.2-2.5s3.1-0.8,5.1-0.5c2.5,0.3,4.3,1.1,5.5,2.3s1.6,3.2,1.3,5.8l-0.5,3.8
		c-0.1,0.7-0.2,1.5-0.2,2.4s-0.1,1.7-0.1,2.5s0,1.4,0.1,2l-4.9-0.6l-0.4-2.2c-0.8,0.8-1.6,1.4-2.7,1.6C281.1,46,280,46.1,278.8,45.9
		L278.8,45.9z M281.2,42.6c1,0.1,1.9,0,2.7-0.5s1.2-1.5,1.4-3.1l0-0.4c-1.9-0.1-3.3,0-4.5,0.2s-1.8,0.8-1.9,1.7
		c-0.1,0.6,0.1,1,0.5,1.4S280.5,42.5,281.2,42.6L281.2,42.6z"/>
	<path class="st0" d="M302.4,49.4c-1.4-0.3-2.5-0.7-3.2-1.1s-1.3-1-1.5-1.8s-0.2-1.8,0.1-3.1l1.7-8.2l-2.8-0.6l0.8-4l2.8,0.6
		l0.9-4.2l5.2,1.1l-0.9,4.2l3.7,0.8l-0.8,4l-3.7-0.8l-1.5,6.8c-0.2,0.8-0.1,1.3,0.1,1.7c0.3,0.3,0.8,0.5,1.6,0.7l1.5,0.3l-0.9,4.2
		L302.4,49.4L302.4,49.4z"/>
	<path class="st0" d="M312.7,52l3.6-12.8l-3.2-0.9l1.1-3.9l8.3,2.4l-4.7,16.7L312.7,52L312.7,52z M320.9,33.3
		c-0.8-0.2-1.5-0.7-1.9-1.5c-0.4-0.8-0.5-1.6-0.3-2.4c0.2-0.9,0.7-1.5,1.5-1.9c0.8-0.4,1.5-0.5,2.4-0.3c0.9,0.2,1.5,0.7,1.9,1.5
		c0.4,0.8,0.5,1.5,0.3,2.4c-0.2,0.8-0.7,1.5-1.5,1.9C322.5,33.5,321.7,33.5,320.9,33.3L320.9,33.3z"/>
	<path class="st0" d="M330.9,58.4c-1.5-0.6-2.8-1.4-3.9-2.5s-1.8-2.5-2.1-4c-0.3-1.6-0.1-3.3,0.6-5.3c0.7-2,1.8-3.4,3-4.4
		s2.7-1.5,4.2-1.6c1.5-0.1,3,0.1,4.5,0.7c1.5,0.6,2.8,1.4,3.8,2.5s1.8,2.4,2.1,4s0.1,3.3-0.6,5.3c-0.7,1.9-1.8,3.4-3,4.4
		c-1.3,1-2.7,1.5-4.2,1.6C333.8,59.2,332.3,58.9,330.9,58.4L330.9,58.4z M332.3,54.5c1,0.4,2,0.3,2.9-0.1s1.7-1.5,2.4-3.2
		c0.6-1.7,0.8-3,0.3-4s-1.1-1.6-2.1-2c-1-0.4-1.9-0.3-2.9,0.1c-1,0.4-1.7,1.5-2.4,3.2c-0.6,1.7-0.8,3-0.4,4
		C330.6,53.5,331.3,54.1,332.3,54.5z"/>
	<path class="st0" d="M343.9,63.2l7.8-15.5l4.1,2.1l-0.5,2.4c0.6-0.4,1.5-0.7,2.6-0.8s2.2,0.1,3.4,0.7c2,1,3.1,2.2,3.3,3.7
		c0.2,1.5-0.3,3.3-1.3,5.4l-4.8,9.4l-4.7-2.4L358,60c0.4-0.7,0.7-1.4,0.9-2.1s0.3-1.2,0.1-1.8s-0.6-1-1.4-1.4c-1-0.5-1.9-0.5-2.7,0
		s-1.6,1.4-2.3,2.8l-4,7.9C348.6,65.6,343.9,63.2,343.9,63.2z"/>
	<path class="st0" d="M382.2,86.6c-2-1.5-3.4-3.2-4.2-5.1s-0.9-3.8-0.4-5.7l5.1,1.6c-0.4,1.1-0.4,2.1,0,3.1c0.4,1,1.1,1.8,2.1,2.6
		c0.5,0.4,1.1,0.7,1.7,1c0.6,0.2,1.2,0.4,1.7,0.3s1-0.3,1.4-0.8c0.5-0.7,0.5-1.4,0.2-2.2s-1-1.7-1.9-2.7l-1.9-2.1
		c-0.9-1-1.6-2-2.1-3s-0.8-2.2-0.8-3.2s0.4-2.2,1.2-3.2c0.8-1,1.6-1.7,2.6-2.1c1-0.4,2.1-0.5,3.2-0.4c1.1,0.1,2.2,0.4,3.4,0.9
		c1.1,0.5,2.1,1,3.1,1.7c1,0.8,1.9,1.6,2.6,2.6c0.7,1,1.3,2.1,1.6,3.2s0.3,2.3,0,3.6l-5.1-1.5c0.2-0.8,0.2-1.6-0.2-2.4
		s-1-1.5-1.9-2.2c-0.9-0.6-1.7-1-2.5-1.1c-0.8-0.1-1.4,0.1-1.9,0.7c-0.4,0.5-0.5,1-0.3,1.6s0.5,1.2,1,1.8l2.1,2.4
		c0.6,0.7,1.3,1.5,1.9,2.3s1.1,1.7,1.5,2.5s0.5,1.8,0.5,2.7s-0.5,1.9-1.2,2.9c-0.7,1-1.6,1.7-2.7,2.1S390,89,388.8,89
		c-1.1,0-2.3-0.3-3.4-0.7C384.3,87.8,383.2,87.3,382.2,86.6L382.2,86.6z"/>
	<path class="st0" d="M398,99.6c-1.1-1.1-1.8-2.1-2.1-3.1s-0.1-2,0.3-3.1s1.2-2.1,2.3-3.3l7.1-7.6l3.9,3.6l-6.6,7.1
		c-1.1,1.2-1.6,2.1-1.6,2.8c0,0.7,0.3,1.4,0.9,1.9c0.8,0.7,1.6,1,2.4,0.8c0.8-0.2,1.8-0.9,2.9-2.1l6.2-6.7l3.9,3.6l-11.8,12.7
		l-3.4-3.1l1.1-2.3c-1,0.3-1.9,0.4-2.8,0.2S399,100.5,398,99.6L398,99.6z"/>
	<path class="st0" d="M410.1,110.2l13.3-11.1l3,3.6l-1.4,2c0.8-0.1,1.6,0,2.7,0.3s2,1,2.8,1.9c0.9,1.1,1.4,2.1,1.5,3
		c0.1,0.9,0,1.9-0.5,2.8c1.2-0.1,2.3,0.1,3.3,0.6s1.9,1.2,2.7,2.1c1.4,1.7,1.9,3.3,1.5,4.7s-1.5,2.9-3.4,4.4l-8.1,6.7l-3.4-4.1
		l7.1-5.9c0.6-0.5,1.2-1,1.6-1.5c0.5-0.5,0.7-1,0.8-1.6c0.1-0.6-0.2-1.2-0.7-1.8c-0.7-0.8-1.5-1.2-2.4-1.1c-0.9,0.1-1.9,0.7-3.1,1.6
		l-7,5.8l-3.4-4.1l7.1-5.9c0.6-0.5,1.2-1,1.6-1.5s0.7-1,0.8-1.6c0.1-0.5-0.1-1.1-0.7-1.8c-0.7-0.8-1.5-1.2-2.4-1.1
		c-0.9,0.1-2,0.7-3.1,1.6l-7,5.8L410.1,110.2L410.1,110.2z"/>
	<path class="st0" d="M430.7,135.7l14.9-8.9l2.4,4l-1.6,1.8c0.8,0,1.6,0.2,2.6,0.7s1.8,1.2,2.5,2.4c0.7,1.2,1.1,2.2,1.1,3.2
		c0,1-0.3,1.9-0.9,2.7c1.2,0.1,2.2,0.4,3.2,1.1c1,0.6,1.7,1.5,2.4,2.5c1.1,1.9,1.4,3.5,0.8,4.9s-2,2.6-4,3.9l-9,5.4l-2.7-4.6
		l7.9-4.7c0.7-0.4,1.3-0.8,1.9-1.3c0.5-0.4,0.9-0.9,1-1.4c0.2-0.5,0-1.2-0.4-1.9c-0.5-0.9-1.3-1.4-2.2-1.4c-0.9,0-2,0.3-3.3,1.1
		l-7.9,4.7l-2.7-4.6l7.9-4.7c0.7-0.4,1.3-0.8,1.9-1.2c0.5-0.4,0.9-0.9,1-1.4s0-1.1-0.4-1.9c-0.6-0.9-1.3-1.4-2.2-1.4s-2,0.4-3.4,1.1
		l-7.8,4.6L430.7,135.7L430.7,135.7z"/>
	<path class="st0" d="M447.8,166.2l12.1-5.6l-1.4-3l3.7-1.7l3.6,7.8l-15.7,7.2L447.8,166.2z M467.2,160.2c-0.4-0.8-0.4-1.6-0.1-2.4
		c0.3-0.8,0.8-1.4,1.6-1.8c0.8-0.4,1.6-0.4,2.4-0.1c0.8,0.3,1.4,0.9,1.8,1.6c0.4,0.8,0.4,1.6,0.1,2.4c-0.3,0.8-0.9,1.4-1.6,1.8
		c-0.8,0.4-1.6,0.4-2.4,0.1C468.2,161.6,467.6,161,467.2,160.2L467.2,160.2z"/>
	<path class="st0" d="M454.8,183.1c-0.5-1.3-0.8-2.4-0.9-3.3c-0.1-0.9,0.2-1.6,0.7-2.2s1.4-1.1,2.7-1.6l7.8-3l-1-2.7l3.8-1.4l1,2.7
		l4-1.5l1.9,5l-4,1.5l1.3,3.5l-3.8,1.4l-1.3-3.5l-6.5,2.5c-0.8,0.3-1.2,0.6-1.3,1s0,1,0.3,1.8l0.5,1.4l-4,1.5L454.8,183.1
		L454.8,183.1z"/>
</g>
<g>
	<path class="st0" d="M23.2,260.6v-23.3h8.3l4.9,16.7l4.9-16.7h8.3v23.3h-5.4v-18.3l-5.5,18.3H34l-5.5-18.3v18.3H23.2L23.2,260.6z"
		/>
	<path class="st0" d="M57.8,261c-1.1,0-2.1-0.2-3-0.6c-0.9-0.4-1.6-1-2.2-1.8c-0.5-0.8-0.8-1.7-0.8-2.7c0-1.4,0.5-2.6,1.5-3.4
		c1-0.8,2.3-1.5,4.1-1.9s3.7-0.7,5.9-0.9c0-1.2-0.2-2.1-0.6-2.6c-0.4-0.5-1.2-0.8-2.3-0.8c-0.7,0-1.4,0.2-1.9,0.5s-0.9,0.9-1.1,1.6
		l-4.5-1.6c0.6-1.2,1.5-2.1,2.9-2.9s3-1.1,5-1.1c2.5,0,4.4,0.6,5.7,1.6c1.3,1.1,2,3,2,5.6v3.8c0,0.8,0,1.6,0.1,2.4
		c0.1,0.9,0.1,1.7,0.2,2.4s0.2,1.4,0.3,1.9h-4.9l-0.6-2.1c-0.7,0.9-1.5,1.6-2.5,1.9C60.2,260.8,59.1,261,57.8,261L57.8,261z
		 M59.8,257.4c1,0,1.9-0.3,2.6-0.8s1-1.6,1-3.2v-0.4c-1.8,0.2-3.3,0.4-4.4,0.8s-1.7,1-1.7,1.9c0,0.6,0.2,1,0.7,1.3
		C58.5,257.2,59.1,257.4,59.8,257.4z"/>
	<path class="st0" d="M72.6,266.2v-3.8h1.1c0.8,0,1.4,0,1.8-0.1c0.4-0.1,0.7-0.2,0.9-0.5c0.2-0.3,0.4-0.7,0.6-1.3l-6.6-17.2H76
		l3.4,10.8l3.3-10.8h5.7l-6.6,17.3c-0.6,1.5-1.1,2.6-1.7,3.4c-0.6,0.8-1.3,1.4-2.2,1.7s-2.1,0.5-3.6,0.5L72.6,266.2L72.6,266.2z"/>
	<path class="st0" d="M106.6,260.6V245h-5.3v-4.3c1.2,0,2.3-0.1,3.1-0.2s1.5-0.4,2-0.9c0.6-0.5,1-1.2,1.4-2.3h4v23.3L106.6,260.6
		L106.6,260.6z"/>
	<path class="st0" d="M116.5,260.6v-4.4c3.1-2.2,5.5-4,7.3-5.5c1.8-1.5,3.1-2.8,3.9-4s1.2-2.2,1.2-3.2c0-0.9-0.3-1.6-1-2.1
		c-0.6-0.5-1.4-0.7-2.2-0.7c-0.7,0-1.4,0.2-2.1,0.6s-1.2,1.2-1.4,2.2l-4.8-1.8c0.6-1.6,1.7-2.9,3.2-3.8c1.5-0.9,3.3-1.3,5.4-1.3
		c1.6,0,3,0.3,4.3,0.8c1.3,0.5,2.2,1.3,3,2.3c0.7,1,1.1,2.2,1.1,3.7c0,2.4-1,4.5-2.9,6.6c-2,2-4.7,4-8.1,6h11.1v4.4L116.5,260.6
		L116.5,260.6z"/>
	<path class="st0" d="M37.2,295.5v-4.4c3.1-2.2,5.5-4,7.3-5.5c1.8-1.5,3.1-2.8,3.9-4s1.2-2.2,1.2-3.2c0-0.9-0.3-1.6-1-2.1
		s-1.4-0.7-2.2-0.7c-0.7,0-1.4,0.2-2.1,0.6c-0.7,0.4-1.2,1.2-1.4,2.2l-4.8-1.8c0.6-1.6,1.7-2.9,3.2-3.8c1.5-0.9,3.3-1.3,5.4-1.3
		c1.6,0,3,0.3,4.3,0.8c1.3,0.5,2.2,1.3,3,2.3c0.7,1,1.1,2.2,1.1,3.7c0,2.4-1,4.5-3,6.5c-2,2-4.7,4-8.1,6h11.1v4.4L37.2,295.5
		L37.2,295.5z"/>
	<path class="st0" d="M68.1,296c-2.2,0-4-0.5-5.5-1.5s-2.6-2.4-3.4-4.2c-0.8-1.8-1.1-4-1.1-6.4c0-3.8,0.8-6.7,2.5-8.8
		c1.7-2.1,4.2-3.2,7.4-3.2s5.8,1.1,7.5,3.2c1.7,2.1,2.6,5.1,2.6,8.8c0,2.5-0.4,4.6-1.1,6.4s-1.9,3.2-3.4,4.2S70.2,296,68.1,296
		L68.1,296z M68.1,292c1.2,0,2.1-0.4,2.8-1.3l-7.1-10.2c-0.1,0.5-0.2,1-0.2,1.5c0,0.5-0.1,1.1-0.1,1.8c0,2.8,0.4,4.9,1.3,6.2
		C65.6,291.4,66.7,292,68.1,292L68.1,292z M72.4,287c0.1-0.9,0.2-1.9,0.2-3.1c0-2.8-0.4-4.9-1.2-6.2c-0.8-1.3-1.9-1.9-3.3-1.9
		c-1.1,0-1.9,0.4-2.7,1.1L72.4,287L72.4,287z"/>
	<path class="st0" d="M80.5,295.5v-4.4c3.1-2.2,5.5-4,7.3-5.5c1.8-1.5,3.1-2.8,3.9-4s1.2-2.2,1.2-3.2c0-0.9-0.3-1.6-1-2.1
		s-1.4-0.7-2.2-0.7c-0.7,0-1.4,0.2-2.1,0.6c-0.7,0.4-1.2,1.2-1.4,2.2l-4.8-1.8c0.6-1.6,1.7-2.9,3.2-3.8c1.5-0.9,3.3-1.3,5.4-1.3
		c1.6,0,3,0.3,4.3,0.8c1.3,0.5,2.2,1.3,3,2.3c0.7,1,1.1,2.2,1.1,3.7c0,2.4-1,4.5-2.9,6.5c-2,2-4.7,4-8.1,6h11.1v4.4L80.5,295.5
		L80.5,295.5z"/>
	<path class="st0" d="M111.6,295.5v-4.9h-11.3v-3.9l11.3-14.5h5.3v13.7h3.2v4.7h-3.2v4.9H111.6z M106,285.9h5.6v-6.8L106,285.9z"/>
</g>
<g>
	<path class="st0" d="M92.7,418.3c-0.5-0.5-0.9-1.1-1.1-1.7c-0.2-0.6-0.3-1.2-0.2-1.8c0.1-0.6,0.4-1.2,0.9-1.7
		c0.7-0.7,1.4-1,2.3-0.9s1.8,0.4,2.8,1c1,0.6,2.1,1.4,3.2,2.3c0.6-0.6,0.9-1.1,0.9-1.5c0.1-0.4-0.2-0.9-0.7-1.4
		c-0.3-0.3-0.7-0.5-1.1-0.6c-0.4-0.1-0.8,0-1.2,0.2l-1.3-2.8c0.8-0.3,1.7-0.3,2.7,0c1,0.3,2,0.9,2.9,1.8c1.2,1.1,1.8,2.3,1.9,3.4
		c0.1,1.1-0.4,2.3-1.7,3.6l-1.8,1.8c-0.3,0.4-0.7,0.7-1.1,1.2c-0.4,0.4-0.7,0.9-1.1,1.2s-0.6,0.8-0.8,1.1l-2.3-2.3l0.7-1.3
		c-0.7,0.1-1.4,0-2.1-0.2C93.9,419.3,93.3,418.9,92.7,418.3L92.7,418.3z M95.3,417.5c0.5,0.5,1,0.8,1.6,0.8c0.6,0.1,1.3-0.3,2-1
		l0.2-0.2c-0.9-0.8-1.8-1.4-2.4-1.7c-0.7-0.4-1.2-0.3-1.7,0.1c-0.3,0.3-0.4,0.6-0.3,1C94.8,416.8,95,417.2,95.3,417.5L95.3,417.5z"
		/>
	<path class="st0" d="M107.9,438.1c-0.5-0.4-0.9-0.9-1.3-1.4c-0.4-0.5-0.7-1.1-0.9-1.8c-0.2-0.7-0.2-1.4,0-2.1l2.9,1
		c-0.1,0.5,0,0.9,0.2,1.2s0.5,0.7,0.8,0.9c0.6,0.5,1.1,0.7,1.7,0.7c0.6,0,1.1-0.3,1.6-0.9l1.3-1.6c-0.8,0.2-1.5,0.2-2.2,0
		s-1.3-0.5-1.8-0.9c-0.6-0.5-1.1-1.2-1.4-2c-0.3-0.8-0.4-1.7-0.2-2.7s0.6-1.9,1.3-2.8c0.8-1,1.7-1.8,2.7-2.1s1.8-0.5,2.6-0.3
		c0.8,0.1,1.6,0.5,2.2,1c0.6,0.5,1,1,1.3,1.7s0.4,1.4,0.4,2.2l1.4-0.9l2.3,1.9l-6.7,8.3c-1.2,1.5-2.5,2.3-3.9,2.3
		C110.8,439.8,109.4,439.3,107.9,438.1L107.9,438.1z M112.9,432c0.4,0.3,0.7,0.5,1.1,0.6s0.8,0,1.3-0.1c0.4-0.2,0.9-0.6,1.4-1.1
		c0.7-0.9,1-1.6,0.9-2.3c-0.1-0.6-0.4-1.2-1-1.6c-0.5-0.4-1.2-0.6-1.8-0.6c-0.7,0-1.3,0.5-2,1.2c-0.7,0.8-0.9,1.5-0.9,2.2
		C112,431,112.3,431.5,112.9,432L112.9,432z"/>
	<path class="st0" d="M120.8,442.4c-0.6-0.4-1-0.9-1.4-1.5s-0.5-1.2-0.5-1.8s0.2-1.2,0.6-1.8c0.6-0.8,1.2-1.2,2.1-1.3
		s1.8,0.1,2.9,0.5s2.3,1,3.5,1.8c0.5-0.7,0.7-1.2,0.7-1.6c0-0.4-0.3-0.9-0.9-1.3c-0.4-0.3-0.8-0.4-1.2-0.5s-0.8,0.1-1.2,0.4
		l-1.8-2.6c0.8-0.4,1.7-0.6,2.7-0.5s2.1,0.5,3.1,1.3c1.3,1,2.1,2,2.4,3.1c0.3,1.1-0.1,2.4-1.1,3.8l-1.5,2.1
		c-0.3,0.4-0.6,0.9-0.9,1.3s-0.6,1-0.8,1.4s-0.4,0.8-0.6,1.2l-2.7-1.9l0.5-1.4c-0.7,0.2-1.4,0.3-2.1,0.1S121.4,442.9,120.8,442.4
		L120.8,442.4z M123.2,441.2c0.6,0.4,1.1,0.6,1.7,0.5c0.6,0,1.2-0.5,1.8-1.3l0.2-0.2c-1.1-0.6-1.9-1-2.7-1.3
		c-0.7-0.2-1.3-0.1-1.6,0.4c-0.2,0.3-0.3,0.6-0.2,1S122.9,440.9,123.2,441.2z"/>
	<path class="st0" d="M133.5,450.7c-0.8-0.5-1.4-1-1.8-1.4c-0.4-0.4-0.5-0.9-0.5-1.4c0.1-0.5,0.3-1.2,0.8-1.9l3-4.7l-1.6-1l1.5-2.3
		l1.6,1l1.6-2.4l2.9,1.9l-1.6,2.4l2.1,1.3l-1.5,2.3l-2.1-1.3l-2.5,3.9c-0.3,0.5-0.4,0.8-0.3,1.1s0.4,0.5,0.9,0.8l0.9,0.5l-1.6,2.4
		L133.5,450.7L133.5,450.7z"/>
	<path class="st0" d="M137.7,453.3l7.7-13.5l3.1,1.7l-2.7,4.8c0.4-0.2,1-0.4,1.8-0.5c0.7,0,1.5,0.1,2.2,0.6c1.3,0.7,2,1.6,2,2.6
		s-0.3,2.2-1.1,3.5l-3.5,6.1l-3.1-1.7l3-5.3c0.3-0.5,0.5-0.9,0.7-1.3c0.2-0.4,0.2-0.8,0.1-1.2s-0.4-0.7-0.9-1
		c-0.6-0.4-1.2-0.4-1.8-0.1s-1.1,0.9-1.6,1.8l-2.9,5.2L137.7,453.3L137.7,453.3z"/>
	<path class="st0" d="M154.9,462.9c-1.1-0.5-2-1.2-2.6-2.1c-0.6-0.9-1-1.8-1.1-2.9c-0.1-1.1,0.2-2.1,0.7-3.3
		c0.5-1.1,1.3-1.9,2.2-2.5s1.9-0.9,2.9-0.9s2.1,0.2,3.1,0.7c1.1,0.6,2,1.3,2.5,2.2c0.5,0.9,0.8,2,0.7,3.1c-0.1,1.1-0.4,2.3-1.1,3.5
		l-7.6-3.7c-0.3,0.8-0.3,1.4,0,2c0.3,0.6,0.7,1,1.3,1.3c0.5,0.2,0.9,0.4,1.4,0.4c0.4,0,0.8,0,1.1-0.1l2.1,2.1
		c-0.9,0.5-1.9,0.8-2.9,0.8C156.7,463.6,155.7,463.3,154.9,462.9L154.9,462.9z M155.7,455.2l4.7,2.3c0.3-0.7,0.3-1.3,0.1-1.9
		s-0.7-1-1.3-1.3c-0.6-0.3-1.2-0.4-1.8-0.3C156.6,454.2,156.1,454.5,155.7,455.2L155.7,455.2z"/>
	<path class="st0" d="M162.6,466.2l4.6-10.6l2.5,1.1l-0.3,2.2c0.7-0.7,1.4-1.1,2.1-1.2c0.7-0.1,1.5,0,2.2,0.4l-1.4,3.2
		c-0.2-0.1-0.3-0.2-0.4-0.2c-0.1-0.1-0.3-0.1-0.4-0.2c-0.8-0.3-1.4-0.4-2-0.2s-1,0.7-1.4,1.5l-2.3,5.4L162.6,466.2L162.6,466.2z"/>
	<path class="st0" d="M173.1,470.6l3.2-8.3l-2-0.8l1-2.5l5.3,2l-4.1,10.8L173.1,470.6L173.1,470.6z M179.6,458.7
		c-0.5-0.2-0.9-0.6-1.1-1.1c-0.2-0.5-0.2-1.1,0-1.6c0.2-0.5,0.6-0.9,1.1-1.2c0.5-0.2,1.1-0.2,1.6,0c0.6,0.2,0.9,0.6,1.2,1.1
		c0.2,0.5,0.2,1.1,0,1.6c-0.2,0.5-0.6,0.9-1.1,1.2C180.7,458.8,180.2,458.9,179.6,458.7L179.6,458.7z"/>
	<path class="st0" d="M179.4,473l3.6-11l2.9,1l-0.1,1.6c0.4-0.3,0.9-0.6,1.6-0.8c0.7-0.2,1.5-0.2,2.3,0.1c1.4,0.5,2.2,1.2,2.5,2.1
		c0.3,1,0.1,2.2-0.3,3.7l-2.2,6.7l-3.3-1.1l1.9-5.8c0.2-0.5,0.3-1,0.4-1.5s0.1-0.8-0.1-1.2c-0.1-0.3-0.5-0.6-1-0.8
		c-0.7-0.2-1.3-0.1-1.8,0.3c-0.5,0.4-0.9,1.1-1.2,2.1l-1.8,5.6L179.4,473L179.4,473z"/>
	<path class="st0" d="M197.3,483.3c-0.6-0.2-1.2-0.4-1.8-0.7c-0.6-0.3-1.1-0.7-1.5-1.3s-0.7-1.2-0.9-1.9l3-0.3
		c0.1,0.5,0.3,0.8,0.7,1.1s0.7,0.4,1.1,0.5c0.7,0.2,1.3,0.2,1.9-0.1s0.9-0.7,1.1-1.5l0.5-2c-0.6,0.5-1.3,0.8-2,0.9s-1.4,0.1-2,0
		c-0.8-0.2-1.5-0.6-2.1-1.2c-0.6-0.6-1.1-1.4-1.3-2.3c-0.2-0.9-0.2-2,0.1-3.1c0.3-1.3,0.8-2.3,1.5-3c0.7-0.7,1.4-1.2,2.2-1.4
		s1.6-0.2,2.4,0c0.7,0.2,1.3,0.5,1.9,1c0.6,0.5,1,1.1,1.2,1.8l0.8-1.4l2.9,0.8l-2.7,10.4c-0.5,1.9-1.3,3.1-2.6,3.7
		S199.1,483.7,197.3,483.3L197.3,483.3z M199.2,475.6c0.4,0.1,0.9,0.1,1.3,0c0.4-0.1,0.8-0.3,1.1-0.7s0.6-0.9,0.8-1.6
		c0.3-1.1,0.2-1.9-0.1-2.5c-0.4-0.5-0.9-0.9-1.5-1.1c-0.7-0.2-1.3-0.1-1.9,0.2c-0.6,0.3-1,1-1.3,2c-0.3,1-0.2,1.8,0.1,2.4
		C198,475.1,198.5,475.5,199.2,475.6L199.2,475.6z"/>
	<path class="st0" d="M216.2,482.6l1.4-8.7l-1.9-0.3l0.4-2.7l1.9,0.3l0.3-1.9c0.1-0.9,0.4-1.6,0.8-2c0.4-0.5,0.9-0.7,1.6-0.8
		c0.7-0.1,1.5-0.1,2.5,0.1l1.6,0.3l-0.4,2.8l-1-0.2c-0.6-0.1-1-0.1-1.2,0s-0.4,0.4-0.4,0.8l-0.2,1.5l2.5,0.4l-0.4,2.7l-2.5-0.4
		l-1.4,8.7L216.2,482.6L216.2,482.6z"/>
	<path class="st0" d="M229.7,484.8c-1.1-0.1-2-0.5-2.9-1c-0.9-0.5-1.5-1.3-2-2.2c-0.5-1-0.6-2.1-0.5-3.5c0.2-1.4,0.6-2.5,1.2-3.3
		c0.7-0.8,1.5-1.4,2.4-1.7s2-0.4,3-0.3c1,0.1,2,0.4,2.9,1s1.5,1.3,2,2.2s0.6,2.1,0.5,3.5c-0.2,1.4-0.6,2.5-1.2,3.3s-1.5,1.4-2.4,1.8
		C231.7,484.8,230.7,484.9,229.7,484.8L229.7,484.8z M230,482c0.7,0.1,1.3-0.1,1.8-0.6c0.5-0.5,0.9-1.3,1-2.5c0.1-1.2,0-2.1-0.4-2.6
		s-1-0.9-1.6-0.9c-0.7-0.1-1.3,0.1-1.8,0.5s-0.9,1.2-1,2.5c-0.1,1.2,0,2.1,0.4,2.6S229.3,482,230,482L230,482z"/>
	<path class="st0" d="M238.4,485.3l0.7-11.5l2.8,0.2l0.5,2.1c0.4-0.9,0.9-1.5,1.6-1.9c0.6-0.3,1.4-0.5,2.3-0.4l-0.2,3.5
		c-0.2,0-0.3-0.1-0.5-0.1s-0.3,0-0.5,0c-0.8,0-1.5,0.1-2,0.5c-0.5,0.4-0.7,1-0.8,1.9l-0.4,5.8L238.4,485.3L238.4,485.3z"/>
	<path class="st0" d="M259.5,486.2c-0.7,0-1.4-0.1-2-0.4c-0.6-0.3-1.1-0.6-1.5-1.1c-0.4-0.5-0.6-1.1-0.6-1.8c0-1,0.3-1.7,0.9-2.3
		c0.6-0.6,1.5-1,2.7-1.3s2.4-0.5,3.9-0.7c0-0.8-0.2-1.4-0.4-1.7s-0.8-0.5-1.5-0.5c-0.5,0-0.9,0.1-1.2,0.4s-0.6,0.6-0.7,1l-3-1
		c0.4-0.8,1-1.4,1.9-2s2-0.8,3.3-0.9c1.6,0,2.9,0.3,3.8,1c0.9,0.7,1.4,1.9,1.4,3.7l0.1,2.5c0,0.5,0,1,0.1,1.6c0,0.6,0.1,1.1,0.2,1.6
		c0.1,0.5,0.1,0.9,0.2,1.3l-3.2,0.1l-0.5-1.4c-0.4,0.6-1,1.1-1.6,1.3S260.3,486.2,259.5,486.2L259.5,486.2z M260.7,483.8
		c0.7,0,1.3-0.2,1.7-0.6c0.5-0.4,0.7-1.1,0.6-2.2v-0.3c-1.2,0.1-2.2,0.3-2.9,0.6c-0.7,0.2-1.1,0.7-1.1,1.3c0,0.4,0.2,0.7,0.5,0.9
		S260.2,483.8,260.7,483.8L260.7,483.8z"/>
	<path class="st0" d="M269.9,485.6l-1-11.5l3.1-0.3l0.6,1.5c0.2-0.5,0.6-0.9,1.2-1.4c0.6-0.5,1.3-0.7,2.2-0.8c1.5-0.1,2.5,0.2,3.1,1
		s1,2,1.1,3.5l0.6,7l-3.5,0.3l-0.5-6.1c0-0.5-0.1-1-0.2-1.5s-0.3-0.8-0.5-1s-0.7-0.4-1.2-0.3c-0.7,0.1-1.2,0.4-1.5,0.9
		s-0.4,1.4-0.3,2.4l0.5,5.9L269.9,485.6L269.9,485.6z"/>
	<path class="st0" d="M285.2,484.1l-1.1-8.8l-2.1,0.3l-0.4-2.7l5.6-0.7l1.5,11.5L285.2,484.1L285.2,484.1z M285.2,470.6
		c-0.6,0.1-1.1-0.1-1.5-0.4s-0.7-0.8-0.8-1.4c-0.1-0.6,0.1-1.1,0.4-1.6c0.4-0.5,0.8-0.7,1.4-0.8c0.6-0.1,1.1,0.1,1.5,0.4
		s0.7,0.8,0.8,1.4c0.1,0.6-0.1,1.1-0.4,1.5C286.3,470.2,285.8,470.5,285.2,470.6L285.2,470.6z"/>
	<path class="st0" d="M292,483.4l-2.2-11.3l3-0.6l0.7,1.4c0.2-0.5,0.5-1,1-1.5c0.5-0.5,1.2-0.9,2-1c0.9-0.2,1.6-0.2,2.2,0.1
		s1.1,0.6,1.5,1.2c0.3-0.7,0.8-1.3,1.4-1.8s1.3-0.8,2.1-0.9c1.4-0.3,2.5-0.1,3.2,0.6c0.7,0.7,1.2,1.8,1.5,3.4l1.4,6.9l-3.4,0.7
		l-1.2-6c-0.1-0.5-0.2-1-0.4-1.4s-0.4-0.8-0.7-1s-0.7-0.3-1.3-0.2c-0.7,0.1-1.1,0.5-1.4,1c-0.2,0.6-0.2,1.3,0,2.3l1.2,6l-3.5,0.7
		l-1.2-6c-0.1-0.5-0.2-1-0.4-1.5c-0.1-0.4-0.4-0.8-0.6-1s-0.7-0.3-1.2-0.2c-0.7,0.1-1.2,0.5-1.4,1.1s-0.2,1.4,0,2.4l1.2,5.9
		L292,483.4L292,483.4z"/>
	<path class="st0" d="M316.5,478.2c-0.7,0.2-1.4,0.2-2,0.1s-1.2-0.4-1.7-0.8c-0.5-0.4-0.8-0.9-1-1.6c-0.3-0.9-0.1-1.7,0.3-2.4
		c0.5-0.7,1.2-1.4,2.2-1.9s2.2-1.1,3.6-1.6c-0.2-0.8-0.5-1.3-0.9-1.6s-0.9-0.3-1.6-0.1c-0.5,0.1-0.8,0.4-1.1,0.7
		c-0.3,0.3-0.4,0.7-0.4,1.2l-3.1-0.2c0.2-0.9,0.6-1.6,1.3-2.4s1.7-1.3,3-1.6c1.6-0.4,2.9-0.4,3.9,0c1,0.5,1.8,1.5,2.3,3.2l0.7,2.4
		c0.1,0.5,0.3,1,0.5,1.5c0.2,0.5,0.4,1.1,0.6,1.5c0.2,0.5,0.4,0.9,0.5,1.2l-3.1,0.9l-0.8-1.2c-0.2,0.7-0.7,1.3-1.2,1.7
		C318,477.7,317.3,478,316.5,478.2L316.5,478.2z M317.1,475.6c0.7-0.2,1.2-0.5,1.5-1c0.3-0.5,0.4-1.2,0.1-2.2l-0.1-0.3
		c-1.1,0.4-2,0.9-2.7,1.3c-0.6,0.4-0.9,0.9-0.7,1.5c0.1,0.4,0.3,0.6,0.7,0.7C316.2,475.7,316.6,475.7,317.1,475.6L317.1,475.6z"/>
	<path class="st0" d="M330,473.8c-0.9,0.3-1.6,0.5-2.2,0.5c-0.6,0-1-0.2-1.4-0.5s-0.7-1-1-1.8l-3.9-11.7l3.3-1.1l3.6,10.8
		c0.2,0.5,0.4,0.8,0.6,0.9c0.3,0.1,0.7,0,1.2-0.1l0.9-0.3l0.9,2.7L330,473.8z"/>
	<path class="st0" d="M341.7,469.5l-4.5-10.7l2.5-1.1l1.4,1.7c0-1,0.2-1.8,0.6-2.4c0.4-0.6,1-1,1.9-1.3l1.4,3.3
		c-0.2,0-0.3,0.1-0.5,0.1c-0.1,0-0.3,0.1-0.4,0.2c-0.8,0.3-1.3,0.8-1.6,1.3c-0.3,0.5-0.2,1.2,0.1,2.1l2.2,5.4L341.7,469.5
		L341.7,469.5z"/>
	<path class="st0" d="M348.1,452c-0.5,0.2-1,0.3-1.6,0.1c-0.5-0.2-0.9-0.6-1.2-1.1c-0.2-0.5-0.3-1.1-0.1-1.6s0.6-0.9,1.1-1.2
		c0.5-0.2,1.1-0.3,1.6-0.1s0.9,0.6,1.2,1.1c0.2,0.5,0.3,1,0.1,1.6S348.6,451.8,348.1,452L348.1,452z M352.1,465l-3.7-8l-2,0.9
		l-1.1-2.5l5.2-2.4l4.9,10.5L352.1,465L352.1,465z"/>
	<path class="st0" d="M365.4,463.7c-0.6,0.3-1.2,0.5-1.8,0.7s-1.3,0.2-2,0.1s-1.3-0.4-2-0.8l2-2.3c0.4,0.3,0.8,0.4,1.2,0.3
		c0.4,0,0.8-0.2,1.2-0.4c0.6-0.3,1.1-0.8,1.3-1.3s0.2-1.1-0.2-1.8l-1-1.8c-0.1,0.8-0.4,1.5-0.9,2s-0.9,1-1.5,1.3
		c-0.7,0.4-1.5,0.6-2.4,0.5c-0.9,0-1.7-0.3-2.5-0.9s-1.5-1.3-2-2.3c-0.6-1.2-0.9-2.3-0.9-3.3c0-1,0.3-1.8,0.7-2.5
		c0.5-0.7,1-1.3,1.7-1.6c0.6-0.3,1.3-0.5,2.1-0.5c0.7,0,1.5,0.1,2.1,0.5l-0.3-1.6l2.7-1.4l5,9.5c0.9,1.7,1.1,3.2,0.6,4.5
		C368,461.8,367,462.9,365.4,463.7L365.4,463.7z M361.7,456.7c0.4-0.2,0.7-0.5,1-0.8s0.4-0.8,0.4-1.2s-0.2-1.1-0.5-1.7
		c-0.5-1-1.1-1.6-1.8-1.7c-0.6-0.1-1.3-0.1-1.9,0.2c-0.6,0.3-1,0.8-1.2,1.5c-0.2,0.6-0.1,1.4,0.4,2.3c0.5,0.9,1.1,1.5,1.7,1.7
		C360.4,457.1,361.1,457.1,361.7,456.7L361.7,456.7z"/>
	<path class="st0" d="M371.3,455.1l-8.1-13.3l3-1.8l2.9,4.7c0-0.5,0.1-1.1,0.5-1.8c0.3-0.7,0.8-1.2,1.6-1.7c1.3-0.8,2.3-1,3.2-0.5
		c0.9,0.4,1.8,1.3,2.6,2.6l3.7,6l-3,1.8l-3.2-5.2c-0.3-0.5-0.6-0.9-0.9-1.2c-0.3-0.4-0.6-0.6-1-0.7c-0.3-0.1-0.8,0-1.2,0.3
		c-0.6,0.4-1,0.9-1,1.5c0,0.6,0.3,1.4,0.8,2.3l3.1,5.1L371.3,455.1L371.3,455.1z"/>
	<path class="st0" d="M387.3,444.8c-0.8,0.5-1.4,0.9-2,1.1c-0.5,0.2-1.1,0.1-1.5-0.1c-0.5-0.2-1-0.8-1.5-1.5l-3.2-4.6l-1.6,1.1
		l-1.5-2.2l1.6-1.1l-1.6-2.4l2.9-2l1.6,2.4l2-1.4l1.5,2.2l-2,1.4l2.6,3.8c0.3,0.5,0.6,0.7,0.9,0.7s0.6-0.1,1.1-0.5l0.8-0.6l1.6,2.4
		L387.3,444.8L387.3,444.8z"/>
	<path class="st0" d="M395.4,439.2c-1.1,0.8-2.1,1.3-3.2,1.5c-1.1,0.2-2.1,0-3-0.5l1.7-2.7c0.4,0.3,0.9,0.4,1.4,0.3
		c0.5-0.1,1.1-0.4,1.6-0.8c0.5-0.3,0.8-0.7,1-1.1s0.2-0.8,0-1c-0.1-0.2-0.4-0.3-0.7-0.3s-0.8,0.2-1.4,0.5l-1.8,1
		c-1,0.5-1.9,0.8-2.8,0.7c-0.9,0-1.6-0.4-2.2-1.2c-0.5-0.6-0.7-1.3-0.6-2c0-0.7,0.3-1.4,0.8-2.1s1.1-1.3,1.8-1.9
		c0.9-0.7,1.8-1.1,2.8-1.4c1-0.2,1.9-0.1,2.8,0.3l-1.7,2.7c-0.3-0.3-0.7-0.3-1.1-0.2s-0.8,0.4-1.2,0.7c-1,0.8-1.3,1.4-0.9,1.9
		c0.1,0.2,0.3,0.3,0.6,0.3c0.3,0,0.6-0.1,1.1-0.4l1.9-1c1.2-0.6,2.3-1,3.1-1s1.5,0.4,2.1,1.1c0.5,0.7,0.8,1.5,0.8,2.3
		c0,0.8-0.3,1.6-0.8,2.3C396.9,438,396.3,438.6,395.4,439.2L395.4,439.2z"/>
	<path class="st0" d="M410.8,426.5c-0.5,0.5-1.1,0.8-1.7,1s-1.2,0.2-1.9,0.1s-1.1-0.5-1.6-1c-0.6-0.7-0.9-1.5-0.8-2.3
		s0.5-1.8,1.1-2.8c0.6-1,1.5-2,2.5-3.1c-0.6-0.6-1-0.9-1.5-1c-0.4-0.1-0.9,0.1-1.5,0.7c-0.4,0.3-0.6,0.7-0.7,1.1
		c-0.1,0.4-0.1,0.8,0.2,1.2l-2.9,1.2c-0.2-0.8-0.2-1.7,0.1-2.7c0.3-1,1-1.9,1.9-2.8c1.2-1.1,2.4-1.7,3.5-1.8
		c1.1-0.1,2.3,0.6,3.5,1.9l1.7,1.9c0.3,0.4,0.7,0.8,1.1,1.1s0.8,0.8,1.2,1.1c0.4,0.3,0.7,0.6,1,0.8l-2.4,2.2l-1.2-0.7
		c0.1,0.7,0,1.4-0.3,2C411.8,425.3,411.4,425.9,410.8,426.5L410.8,426.5z M410.1,423.8c0.5-0.5,0.8-1,0.9-1.6c0.1-0.6-0.2-1.3-1-2
		l-0.2-0.2c-0.8,0.9-1.4,1.7-1.8,2.4c-0.4,0.7-0.4,1.2,0,1.7c0.2,0.3,0.6,0.4,1,0.3S409.8,424.1,410.1,423.8L410.1,423.8z"/>
	<path class="st0" d="M422.1,415.5c-0.9,0.9-1.8,1.5-2.8,1.8s-2,0.2-2.9-0.1c-1-0.3-1.9-0.9-2.8-1.7s-1.5-1.8-1.8-2.7
		c-0.3-1-0.3-2-0.1-3c0.3-1,0.8-1.9,1.6-2.7c0.5-0.5,1-0.9,1.6-1.2s1.2-0.6,1.9-0.7c0.7-0.1,1.5,0,2.2,0.3l-1.3,2.9
		c-0.5-0.2-0.9-0.3-1.3-0.1s-0.8,0.3-1.1,0.7c-0.3,0.3-0.5,0.7-0.6,1.1c-0.1,0.4-0.1,0.9,0.1,1.4c0.2,0.5,0.6,1,1.2,1.6
		c0.6,0.6,1.2,1,1.7,1.1s1,0.2,1.4,0s0.8-0.3,1-0.6c0.3-0.4,0.6-0.7,0.6-1.1s0.1-0.8,0-1.1l2.7-1.3c0.2,0.8,0.3,1.5,0.2,2.2
		s-0.3,1.3-0.6,1.9C422.9,414.5,422.5,415,422.1,415.5L422.1,415.5z"/>
	<path class="st0" d="M430.3,406c-0.6,0.7-1.2,1.2-1.6,1.5c-0.5,0.3-1,0.4-1.5,0.3s-1.1-0.5-1.8-1.1l-4.2-3.7l-1.2,1.4l-2-1.8
		l1.2-1.4l-2.2-1.9l2.3-2.6l2.2,1.9l1.6-1.9l2,1.8l-1.6,1.9l3.5,3.1c0.4,0.4,0.7,0.5,1,0.5c0.3,0,0.6-0.3,1-0.7l0.7-0.8l2.2,1.9
		L430.3,406L430.3,406z"/>
	<path class="st0" d="M425,391.3c-0.4,0.4-0.8,0.7-1.4,0.8c-0.6,0.1-1.1-0.1-1.5-0.5c-0.5-0.4-0.7-0.8-0.8-1.4s0.1-1.1,0.5-1.5
		c0.4-0.5,0.8-0.7,1.4-0.8s1.1,0.1,1.5,0.5c0.5,0.4,0.7,0.8,0.8,1.4C425.6,390.4,425.4,390.9,425,391.3L425,391.3z M434.4,401.1
		l-6.9-5.6l-1.4,1.7l-2.1-1.7l3.6-4.4l9,7.3L434.4,401.1L434.4,401.1z"/>
	<path class="st0" d="M440.3,393.6l-11.7-3.5l2.1-2.9l7.8,2.7l-4.9-6.6l2.1-2.9l6.9,10.1L440.3,393.6L440.3,393.6z"/>
	<path class="st0" d="M437,374.8c-0.3,0.5-0.8,0.8-1.3,0.9c-0.6,0.1-1.1,0-1.6-0.3c-0.5-0.3-0.8-0.8-0.9-1.3s0-1.1,0.3-1.5
		c0.3-0.5,0.8-0.8,1.3-0.9c0.6-0.1,1.1,0,1.6,0.3c0.5,0.3,0.8,0.8,0.9,1.3S437.4,374.3,437,374.8L437,374.8z M447.3,383.7l-7.4-4.9
		l-1.2,1.8l-2.2-1.5l3.1-4.8l9.6,6.4L447.3,383.7L447.3,383.7z"/>
	<path class="st0" d="M453.7,374.1c-0.7,1.1-1.5,2-2.4,2.6c-0.9,0.6-1.9,0.8-3,0.7l0.6-3.1c0.5,0.1,1,0,1.4-0.3
		c0.5-0.3,0.9-0.7,1.2-1.3c0.3-0.5,0.5-1,0.5-1.4s0-0.8-0.4-1c-0.2-0.1-0.5-0.1-0.7,0s-0.6,0.5-1.1,1l-1.4,1.6
		c-0.7,0.9-1.5,1.4-2.4,1.7c-0.9,0.3-1.7,0.2-2.5-0.3c-0.7-0.4-1.1-1-1.4-1.7c-0.2-0.7-0.2-1.5-0.1-2.3c0.2-0.8,0.5-1.6,1-2.4
		c0.6-0.9,1.2-1.7,2.1-2.3s1.7-0.8,2.7-0.7l-0.6,3.1c-0.4-0.1-0.8,0-1.1,0.2s-0.6,0.6-0.9,1.1c-0.6,1.1-0.7,1.8-0.2,2.1
		c0.2,0.1,0.4,0.1,0.7,0c0.2-0.1,0.5-0.4,0.9-0.7l1.4-1.6c0.9-1.1,1.8-1.8,2.5-2.1s1.5-0.2,2.4,0.3c0.8,0.5,1.3,1.1,1.5,1.8
		s0.3,1.6,0.1,2.4S454.3,373.2,453.7,374.1L453.7,374.1z"/>
	<path class="st0" d="M459.9,362.4c-0.4,0.8-0.9,1.5-1.3,1.9c-0.4,0.4-0.9,0.6-1.4,0.6s-1.2-0.2-2-0.6l-4.9-2.6l-0.9,1.7l-2.4-1.3
		l0.9-1.7l-2.5-1.4l1.6-3.1l2.5,1.4l1.2-2.2l2.4,1.3l-1.2,2.2l4.1,2.2c0.5,0.2,0.8,0.3,1.1,0.2s0.5-0.4,0.8-0.9l0.5-0.9l2.5,1.4
		L459.9,362.4L459.9,362.4z"/>
	<path class="st0" d="M464.5,353.8c-0.6,1.2-1.3,2.1-2.1,2.8s-1.8,1-2.9,1l0.3-3.2c0.5,0,1-0.1,1.4-0.4c0.4-0.3,0.8-0.8,1.1-1.4
		c0.2-0.5,0.4-1,0.4-1.5s-0.1-0.8-0.5-0.9c-0.2-0.1-0.5-0.1-0.7,0.1c-0.3,0.2-0.6,0.5-1,1.1l-1.2,1.7c-0.6,0.9-1.4,1.6-2.2,2
		c-0.8,0.4-1.7,0.4-2.5,0c-0.7-0.3-1.2-0.9-1.5-1.5s-0.4-1.4-0.3-2.3s0.3-1.7,0.7-2.5c0.5-1,1.1-1.8,1.8-2.5c0.8-0.7,1.6-1,2.6-1
		l-0.3,3.1c-0.4-0.1-0.8,0-1.1,0.3s-0.6,0.7-0.8,1.2c-0.5,1.1-0.5,1.8,0,2.1c0.2,0.1,0.4,0.1,0.6,0c0.2-0.1,0.5-0.4,0.8-0.8l1.3-1.8
		c0.8-1.1,1.6-1.9,2.3-2.3s1.5-0.4,2.4,0c0.8,0.4,1.4,0.9,1.7,1.6s0.5,1.5,0.4,2.4C465.2,351.9,464.9,352.8,464.5,353.8L464.5,353.8
		z"/>
</g>
<polygon class="st0" points="168.8,336.9 187.7,350.2 207.3,369.9 223.2,386 236.1,395.6 252.3,400.3 230.8,408.1 214.4,407.2 
	200.5,420.8 191.4,427.5 179.7,431.2 150.5,418.3 120.9,392.1 111.2,380.6 151.7,352 "/>
<path class="st0" d="M202,328.7l0.6-14l-1.1-7l-0.9,6.9l-1,5l-23.8-14.1c0,0-2.4-9.5-2.4-10s3.6-10.3,3.6-10.3l4.8-3.3l17.8,8.1
	l4.3,1.4l1.9,4.4v-7.5l-3-8.4l0.2,8l-20.7-8l-3.7-7.6l4.1-11.5l6.9-3.9l26.2,6.7l9.9-0.1l5.4-7.4l-6.4,4.9l-5.7,0.8l-25.6-6.4
	l-1.3-9.3l9.5-12.2l13.3,1l33.4,9.1l23.1,8.1l12.9,9.5l13.9,3l-4.3,12.1l2.4,8.9l5.8,2.3l-4,6.1l0.2,9.9l6,7l4.9,0.9l-1.8,4.8
	l1.1,8.5l7.1,6.7h8.7l5-1v4.1l8.9,7.1l14.1,2.5l26.8,12.4l30,15.2l-6.1,8l-23.6,23.8l-19.4,13.6l-22.1,12.3l-46.5-27.7l-37-5
	l-18.4-5l-24.1-21.1l-6.1-7.5l-0.7-6.7l-2.1,2.8l-19.7-16.5l-14.9-11l-2.1-13l5.6-9.7l3.8-0.7l24.2,13.7L202,328.7L202,328.7z"/>
<polygon class="st0" points="237,236.7 256,228.8 264.9,224.6 264.9,226.2 270.8,221.2 282.3,222 298.9,235.2 318,244.4 319,250.1 
	306.3,259.2 289,260.6 273,250.1 242.3,239.5 230.2,237.1 "/>
<polygon class="st0" points="221.8,234.3 233.6,234.7 249.9,229.4 259,224.7 242.1,223 230.2,231.2 "/>
<polygon class="st0" points="320.6,246.4 321.1,249.2 327,250.1 320.8,251.3 305.3,262.8 300.7,265 296.4,277 298.7,283.4 
	307.2,284.4 335.4,273.4 343.1,265 338.9,250.6 330.3,247.4 "/>
<polygon class="st0" points="300.7,294.8 305,288.3 337.6,275.1 347.1,275.1 354.5,288.4 349.5,297.1 311.4,309.1 305.3,308.7 
	300.2,302.3 "/>
<polygon class="st0" points="309.3,316.6 312.7,311.1 349,299.6 355.2,306.7 355.2,316.9 347.6,323.6 325.8,328.9 317.2,329.8 
	310.3,324.2 "/>
<polygon class="st0" points="331.6,330.2 348.9,325.5 353.8,323.5 359.8,331.4 358.5,338.6 354.5,342.3 339.1,340 331.6,333.9 "/>
<polygon class="st0" points="36.8,180.2 46.9,175.4 54.3,177.8 61.1,181.4 150.8,193.9 163.1,190.8 170.6,192.6 172.5,199.6 
	164,200.8 156.9,211.3 159.6,223.1 170.3,226 168.4,232 161.5,234.8 140.7,226.1 120.8,228.2 105.3,221.6 92.7,224.9 76.5,218 
	53.9,216 40.6,220.8 30.9,203.7 "/>
<polygon class="st0" points="223.8,231.6 171.8,224 162,221.1 159.1,211.2 166.2,202.6 179.4,201.6 296.4,210.2 298.9,213.6 
	297.6,229.7 281.8,219 268.8,219 262.7,222 239.9,220.5 "/>
<polygon class="st0" points="310.5,234.9 298.9,230.3 300.6,213.1 306.5,211.2 315.2,211.2 315.2,212.8 310.7,216 308.1,229.1 
	310.7,232.9 "/>
<polygon class="st0" points="315,214.3 321,214.4 322.5,207.5 338.4,209.3 338.4,216.1 344.9,216 345.4,211.2 343.1,209.7 
	344.1,201.6 358,203.7 358,211.2 353.7,211.2 354.5,216 374.1,218 379,224.5 379.1,232.9 372.8,240.3 317.7,236.5 309.7,229.4 
	312.1,216.6 "/>
<polygon class="st0" points="352.3,246.4 365.7,242.4 372.8,246.3 374.7,263.4 371.1,268.8 378.1,276 382.8,288.5 377.1,296.4 
	359.8,297.3 356.7,294 357.3,284.6 349.4,272.5 352.5,264.1 349,255.2 "/>
<polygon class="st0" points="336.9,240.3 359.8,240.9 348,245.7 347.1,254.2 338.4,246.4 332.2,244.6 "/>
<polygon class="st0" points="431,217.2 381.2,222.7 382.8,232.1 377.1,240.5 429.4,251.6 429.5,256.9 379.1,273.4 385.9,288.7 
	422.1,291.1 433.8,291.2 "/>
<polygon class="st0" points="433.8,217.1 436.6,290.8 453.2,290.1 461.9,288.5 458.5,218 441.5,216 "/>
<polygon class="st0" points="462.4,218 463.5,248.4 492,246.4 481,226.4 "/>
<polygon class="st0" points="463.6,254.2 493.1,251.6 490.2,269.4 474.7,283.8 465.3,287.7 "/>
<polygon class="st0" points="42.2,322.5 52.4,323.8 58.1,326.5 83.3,322.5 92.8,315.2 113.6,316.3 125.2,307.1 143.6,308.4 
	161.5,298.4 171.8,301.2 169.9,306 163.1,317 165.4,333.8 159.1,340.8 151,340.8 65,360 62.4,364.9 54.8,367.5 42.2,356.3 
	36.8,336.9 "/>
</svg>
