<?xml version="1.0" encoding="UTF-8"?>
<svg id="Layer_1" data-name="Layer 1" xmlns="http://www.w3.org/2000/svg" xmlns:xlink="http://www.w3.org/1999/xlink" viewBox="0 0 512 512">
  <defs>
    <style>
      .cls-1 {
        fill: #fff;
      }

      .cls-2 {
        mask: url(#mask);
      }

      .cls-3 {
        fill: #f5e8c7;
      }

      .cls-4 {
        filter: url(#luminosity-invert-noclip);
      }
    </style>
    <filter id="luminosity-invert-noclip" x="13.08" y="59.51" width="448.84" height="392.97" color-interpolation-filters="sRGB" filterUnits="userSpaceOnUse">
      <feColorMatrix result="cm" values="-1 0 0 0 1 0 -1 0 0 1 0 0 -1 0 1 0 0 0 1 0"/>
      <feFlood flood-color="#fff" result="bg"/>
      <feBlend in="cm" in2="bg"/>
    </filter>
    <mask id="mask" x="13.08" y="59.51" width="448.84" height="392.97" maskUnits="userSpaceOnUse">
      <g class="cls-4">
        <polygon class="cls-1" points="67.31 172.72 92.54 180.48 461.92 211.17 460.3 297.28 39.66 369.44 13.08 176.28 67.31 172.72"/>
      </g>
    </mask>
  </defs>
  <path class="cls-3" d="m256,512C114.84,512,0,397.16,0,256S114.84,0,256,0s256,114.84,256,256-114.84,256-256,256Zm0-506.18C118.05,5.82,5.82,118.05,5.82,256s112.23,250.18,250.18,250.18,250.18-112.23,250.18-250.18S393.95,5.82,256,5.82Z"/>
  <g class="cls-2">
    <path class="cls-3" d="m256,452.49c-108.34,0-196.48-88.14-196.48-196.49S147.66,59.51,256,59.51s196.49,88.14,196.49,196.48-88.14,196.49-196.49,196.49Zm0-387.15c-105.13,0-190.66,85.53-190.66,190.66s85.53,190.66,190.66,190.66,190.66-85.53,190.66-190.66-85.53-190.66-190.66-190.66Z"/>
  </g>
  <g>
    <path class="cls-3" d="m73.21,148.51l-14.5-20.31,3.37-5.06,24.32,5.6-3.34,5-4.23-1.14-4.96,7.44,2.68,3.47-3.34,5Zm-2.23-12.2l3.3-4.94-9.05-2.43,5.75,7.37Z"/>
    <path class="cls-3" d="m89.01,125.63l-13.23-11.19,3-3.55,2.19.98c-.24-.72-.3-1.63-.16-2.73.13-1.09.63-2.15,1.48-3.16,1.44-1.71,2.91-2.47,4.39-2.3,1.49.17,3.13,1.02,4.92,2.54l8.05,6.82-3.43,4.05-7.04-5.96c-.62-.53-1.22-.97-1.8-1.34-.58-.36-1.14-.54-1.68-.53-.54.01-1.09.35-1.65,1.01-.72.85-.94,1.74-.66,2.64.28.91,1.03,1.88,2.24,2.9l6.8,5.75-3.43,4.05Z"/>
    <path class="cls-3" d="m92.63,91.45c-.61.61-1.35.92-2.22.92-.87,0-1.61-.3-2.22-.91-.63-.62-.94-1.37-.93-2.23,0-.86.31-1.6.92-2.21.62-.63,1.36-.94,2.22-.94.86,0,1.6.31,2.22.93.61.61.92,1.34.93,2.21s-.3,1.61-.92,2.24Zm12.41,16.15l-9.41-9.37-2.32,2.33-2.87-2.86,6.09-6.11,12.28,12.23-3.77,3.79Z"/>
    <path class="cls-3" d="m112.51,99.76l-10.88-13.49,3.62-2.92,1.96,1.38c-.1-.76.01-1.65.34-2.7.33-1.04.99-1.96,1.98-2.77,1.07-.86,2.08-1.36,3.03-1.5.95-.14,1.88.04,2.79.53-.07-1.17.14-2.27.64-3.3.5-1.03,1.22-1.93,2.16-2.69,1.72-1.39,3.3-1.86,4.74-1.42,1.43.44,2.89,1.58,4.37,3.41l6.62,8.21-4.13,3.33-5.79-7.18c-.51-.63-1.02-1.18-1.51-1.65s-1.02-.74-1.56-.83c-.55-.08-1.15.15-1.83.69-.83.67-1.2,1.46-1.11,2.35.09.9.62,1.93,1.57,3.11l5.75,7.12-4.16,3.36-5.79-7.18c-.51-.63-1.01-1.19-1.5-1.66-.49-.47-1-.76-1.54-.85-.54-.09-1.13.13-1.78.65-.85.69-1.22,1.5-1.12,2.43.11.93.63,1.99,1.59,3.16l5.68,7.04-4.13,3.33Z"/>
    <path class="cls-3" d="m143.17,77.33c-.93.57-1.9.92-2.89,1.04-.99.12-1.92,0-2.77-.37-.85-.36-1.55-.99-2.1-1.89-.74-1.21-.91-2.43-.51-3.66.41-1.23,1.23-2.48,2.48-3.74s2.78-2.54,4.6-3.85c-.64-1.05-1.27-1.69-1.88-1.92s-1.39-.05-2.37.55c-.61.38-1.07.85-1.36,1.43-.29.57-.33,1.21-.13,1.9l-4.65.97c-.11-1.3.21-2.63.97-4,.76-1.37,1.98-2.57,3.67-3.61,2.1-1.29,4.01-1.82,5.71-1.58,1.71.24,3.24,1.48,4.62,3.72l1.99,3.25c.39.63.83,1.31,1.32,2.02.49.71.98,1.37,1.46,1.97s.91,1.1,1.27,1.47l-4.2,2.58-1.63-1.46c-.08,1.12-.44,2.1-1.08,2.94s-1.49,1.59-2.54,2.24Zm-.24-4.12c.89-.55,1.49-1.24,1.79-2.09.3-.84.04-1.94-.79-3.29l-.22-.36c-1.48,1.1-2.61,2.09-3.39,2.96-.78.87-.92,1.7-.45,2.47.29.48.73.74,1.3.78.57.04,1.16-.12,1.75-.48Z"/>
    <path class="cls-3" d="m162.4,66.06c-1.27.64-2.33,1.04-3.19,1.2s-1.61,0-2.25-.47c-.64-.47-1.27-1.31-1.88-2.51l-8.32-16.46,4.74-2.4,7.69,15.21c.37.73.75,1.13,1.15,1.2.4.07,1-.09,1.79-.49l1.34-.68,1.95,3.87-3.02,1.53Z"/>
    <path class="cls-3" d="m181.55,57.62l-7.38-22.14,5.23-1.75,5.85,17.53,10.6-3.54,1.54,4.61-15.84,5.28Z"/>
    <path class="cls-3" d="m203.54,50.86l-3.2-12.88-3.19.79-.98-3.93,8.37-2.08,4.17,16.82-5.19,1.29Zm-2.25-20.24c-.84.21-1.63.09-2.38-.36-.75-.45-1.22-1.09-1.43-1.93-.21-.86-.09-1.66.36-2.39s1.1-1.21,1.93-1.42c.86-.21,1.65-.1,2.39.34.73.44,1.21,1.09,1.42,1.95.21.84.09,1.63-.35,2.37s-1.09,1.22-1.95,1.44Z"/>
    <path class="cls-3" d="m224.7,47.03c-.92.14-1.91.08-2.98-.2-1.07-.28-1.96-.85-2.66-1.7l-.29,2.42-4.59.72-3.64-23.05,5.24-.83,1.31,8.28c.4-1.03,1.07-1.86,1.99-2.49s1.85-1.02,2.77-1.16c1.47-.23,2.84-.08,4.09.45s2.3,1.41,3.16,2.63c.85,1.22,1.43,2.76,1.72,4.63.29,1.86.23,3.53-.2,5-.43,1.47-1.15,2.66-2.18,3.58-1.02.92-2.27,1.49-3.74,1.72Zm-2.3-3.81c1.01-.16,1.82-.74,2.43-1.74.61-1,.79-2.3.53-3.89-.25-1.56-.81-2.7-1.69-3.41-.88-.71-1.82-.98-2.84-.83-1.04.16-1.87.69-2.49,1.58-.63.89-.8,2.21-.52,3.96.28,1.77.85,2.98,1.72,3.62.87.64,1.82.88,2.85.72Z"/>
    <path class="cls-3" d="m245.54,44.99c-1.86.09-3.53-.19-4.99-.85-1.47-.66-2.64-1.66-3.51-2.99s-1.36-2.95-1.45-4.86c-.09-1.84.25-3.45,1.03-4.84s1.86-2.5,3.22-3.31c1.37-.82,2.89-1.27,4.57-1.35,1.91-.1,3.56.27,4.97,1.09,1.41.83,2.5,2.01,3.27,3.54.78,1.53,1.16,3.33,1.15,5.38l-12.8.65c.16,1.2.65,2.09,1.48,2.65.83.56,1.74.82,2.72.77.81-.04,1.51-.2,2.09-.47.58-.27,1.02-.61,1.33-.99l4.3,1.32c-.84,1.37-1.92,2.41-3.25,3.1-1.33.7-2.7,1.08-4.12,1.15Zm-4.71-10.67l7.88-.4c-.08-1.12-.51-1.94-1.28-2.47-.77-.53-1.67-.77-2.69-.72-1,.05-1.88.36-2.63.94-.75.58-1.18,1.46-1.28,2.65Z"/>
    <path class="cls-3" d="m259.01,44.28l.62-17.31,4.19.15.83,3.21c.58-1.38,1.35-2.33,2.3-2.85.95-.52,2.09-.73,3.41-.61l-.19,5.31c-.28-.06-.52-.09-.73-.11-.21-.02-.44-.03-.7-.04-1.28-.05-2.27.22-2.98.8-.71.58-1.09,1.56-1.14,2.93l-.31,8.73-5.31-.19Z"/>
    <path class="cls-3" d="m278.8,45.93c-1.09-.13-2.06-.46-2.91-.98s-1.5-1.2-1.94-2.01c-.44-.81-.6-1.74-.47-2.78.17-1.41.8-2.47,1.88-3.19,1.08-.71,2.51-1.18,4.27-1.38,1.76-.21,3.76-.26,6-.15.15-1.23.06-2.12-.27-2.67s-1.06-.9-2.2-1.04c-.72-.09-1.37,0-1.95.27-.58.27-1.01.74-1.28,1.41l-4.25-2.13c.72-1.09,1.8-1.93,3.24-2.53,1.44-.6,3.15-.78,5.12-.54,2.45.3,4.27,1.07,5.46,2.31s1.62,3.18,1.31,5.79l-.46,3.78c-.09.74-.16,1.54-.22,2.4-.06.86-.09,1.68-.09,2.45s.03,1.42.08,1.95l-4.89-.59-.37-2.16c-.76.82-1.65,1.37-2.68,1.63-1.03.26-2.16.32-3.38.17Zm2.38-3.37c1.04.13,1.94-.05,2.7-.52s1.24-1.49,1.43-3.06l.05-.42c-1.85-.06-3.34.01-4.49.21s-1.78.75-1.89,1.65c-.07.56.11,1.03.53,1.42.42.39.98.63,1.67.71Z"/>
    <path class="cls-3" d="m302.37,49.39c-1.39-.29-2.47-.65-3.24-1.06-.77-.41-1.26-1-1.46-1.77s-.17-1.81.11-3.14l1.73-8.2-2.8-.59.84-3.96,2.8.59.89-4.24,5.2,1.1-.9,4.24,3.69.78-.84,3.96-3.69-.78-1.45,6.84c-.17.8-.12,1.35.13,1.65.26.3.81.54,1.65.72l1.5.32-.9,4.24-3.28-.69Z"/>
    <path class="cls-3" d="m312.74,52l3.63-12.77-3.16-.9,1.11-3.9,8.3,2.36-4.74,16.66-5.14-1.46Zm8.12-18.68c-.83-.24-1.46-.74-1.88-1.5-.43-.76-.52-1.56-.28-2.39.24-.85.74-1.48,1.5-1.9.76-.41,1.55-.5,2.38-.27.85.24,1.48.74,1.9,1.48.42.75.5,1.55.26,2.4-.24.83-.73,1.46-1.48,1.88-.75.43-1.55.52-2.4.28Z"/>
    <path class="cls-3" d="m330.85,58.37c-1.5-.57-2.79-1.41-3.87-2.51-1.08-1.1-1.78-2.45-2.1-4.03-.32-1.58-.12-3.34.62-5.28.74-1.96,1.75-3.41,3.03-4.36,1.28-.95,2.69-1.47,4.22-1.58,1.53-.1,3.05.13,4.55.7,1.48.56,2.76,1.39,3.84,2.48,1.08,1.09,1.79,2.42,2.12,3.98.33,1.56.13,3.32-.62,5.28-.73,1.94-1.75,3.39-3.03,4.36-1.29.97-2.7,1.51-4.24,1.63-1.54.11-3.05-.11-4.53-.67Zm1.46-3.85c1,.38,1.97.34,2.91-.13.94-.47,1.73-1.55,2.37-3.25.65-1.72.76-3.05.34-4s-1.12-1.6-2.08-1.96c-.98-.37-1.94-.34-2.89.08-.95.43-1.74,1.5-2.4,3.22-.64,1.7-.76,3.04-.36,4.01.4.97,1.1,1.65,2.11,2.03Z"/>
    <path class="cls-3" d="m343.9,63.19l7.81-15.47,4.15,2.09-.45,2.36c.65-.4,1.52-.67,2.61-.8,1.09-.13,2.23.11,3.42.71,2,1.01,3.08,2.25,3.26,3.74.18,1.48-.27,3.28-1.32,5.38l-4.76,9.42-4.74-2.39,4.16-8.23c.37-.73.66-1.41.88-2.06.22-.65.26-1.23.12-1.76-.14-.53-.59-.98-1.36-1.37-1-.5-1.91-.51-2.73-.03s-1.59,1.44-2.3,2.85l-4.01,7.95-4.74-2.39Z"/>
    <path class="cls-3" d="m382.21,86.56c-2.04-1.52-3.44-3.21-4.21-5.08-.77-1.87-.89-3.76-.36-5.69l5.12,1.55c-.41,1.09-.41,2.12,0,3.08.4.97,1.11,1.83,2.14,2.6.54.4,1.11.73,1.71.99.59.25,1.17.36,1.72.32.55-.04,1.01-.3,1.37-.79.49-.65.55-1.4.19-2.24-.36-.84-.98-1.72-1.85-2.66l-1.93-2.14c-.86-.96-1.56-1.97-2.12-3.04s-.83-2.15-.83-3.24c0-1.09.39-2.17,1.19-3.23.75-1.01,1.63-1.7,2.64-2.08,1.01-.38,2.08-.52,3.2-.41,1.12.11,2.24.4,3.35.86,1.11.46,2.13,1.04,3.06,1.74,1.01.75,1.88,1.62,2.61,2.6.74.98,1.26,2.05,1.57,3.19s.3,2.35-.03,3.61l-5.09-1.53c.23-.82.16-1.63-.22-2.43-.38-.8-1-1.53-1.88-2.18-.86-.64-1.69-1.02-2.49-1.13-.8-.12-1.42.11-1.85.69-.35.47-.45,1.01-.31,1.64s.48,1.24,1.02,1.85l2.15,2.38c.65.72,1.29,1.49,1.9,2.31s1.1,1.66,1.48,2.54c.38.88.53,1.79.47,2.73-.06.94-.45,1.9-1.18,2.87-.74.99-1.62,1.7-2.66,2.14s-2.12.63-3.27.59c-1.14-.04-2.29-.27-3.42-.7-1.14-.43-2.19-1-3.16-1.72Z"/>
    <path class="cls-3" d="m398.04,99.59c-1.13-1.05-1.82-2.07-2.07-3.09s-.14-2.04.34-3.09,1.25-2.14,2.31-3.29l7.08-7.63,3.89,3.61-6.58,7.09c-1.08,1.16-1.62,2.1-1.63,2.8,0,.71.31,1.36.94,1.94.77.71,1.57.98,2.39.79.83-.19,1.79-.87,2.88-2.05l6.2-6.68,3.92,3.64-11.78,12.7-3.38-3.14,1.13-2.29c-.96.28-1.9.36-2.81.23-.91-.13-1.85-.65-2.83-1.55Z"/>
    <path class="cls-3" d="m410.06,110.18l13.32-11.08,2.97,3.57-1.35,1.98c.75-.11,1.65-.01,2.7.3s1.98.96,2.8,1.94c.88,1.06,1.39,2.06,1.55,3.01.15.95-.01,1.88-.49,2.79,1.17-.09,2.27.11,3.31.59s1.94,1.19,2.72,2.12c1.41,1.7,1.91,3.27,1.49,4.71-.42,1.44-1.54,2.91-3.35,4.42l-8.11,6.75-3.4-4.08,7.09-5.9c.63-.52,1.17-1.03,1.63-1.54.46-.5.73-1.03.8-1.58.07-.55-.16-1.15-.71-1.81-.68-.82-1.47-1.18-2.37-1.07-.89.11-1.92.65-3.09,1.61l-7.04,5.85-3.42-4.11,7.09-5.9c.63-.52,1.17-1.03,1.64-1.52.47-.49.74-1.01.82-1.55.08-.54-.14-1.13-.68-1.77-.7-.84-1.52-1.2-2.44-1.08-.93.12-1.98.67-3.14,1.63l-6.96,5.79-3.4-4.08Z"/>
    <path class="cls-3" d="m430.74,135.68l14.87-8.9,2.39,3.99-1.64,1.75c.76,0,1.64.24,2.62.71s1.81,1.25,2.47,2.35c.71,1.18,1.06,2.25,1.07,3.21,0,.96-.3,1.86-.92,2.69,1.17.09,2.22.45,3.18,1.09.95.64,1.74,1.48,2.36,2.52,1.14,1.9,1.39,3.53.75,4.89s-1.97,2.64-3.99,3.85l-9.05,5.42-2.73-4.56,7.91-4.74c.7-.42,1.32-.84,1.85-1.27.53-.43.88-.9,1.03-1.43.16-.53.02-1.16-.43-1.9-.55-.92-1.28-1.39-2.18-1.43-.9-.03-2,.34-3.3,1.12l-7.85,4.7-2.74-4.59,7.91-4.74c.7-.42,1.32-.84,1.86-1.25.54-.42.89-.88,1.05-1.4s.03-1.14-.4-1.86c-.56-.94-1.31-1.42-2.25-1.44-.94-.02-2.05.35-3.35,1.13l-7.76,4.65-2.73-4.56Z"/>
    <path class="cls-3" d="m447.78,166.24l12.06-5.56-1.37-2.98,3.68-1.7,3.61,7.84-15.74,7.25-2.24-4.85Zm19.46-6.01c-.36-.78-.39-1.58-.09-2.4.3-.82.84-1.41,1.63-1.77.8-.37,1.61-.4,2.42-.1.81.31,1.39.85,1.75,1.63.37.8.41,1.61.11,2.41-.3.8-.85,1.39-1.65,1.76-.78.36-1.58.4-2.4.1-.81-.29-1.41-.84-1.78-1.64Z"/>
    <path class="cls-3" d="m454.83,183.14c-.5-1.33-.79-2.43-.86-3.3-.07-.87.16-1.6.7-2.19.54-.59,1.44-1.12,2.7-1.6l7.84-2.98-1.02-2.68,3.79-1.44,1.02,2.68,4.05-1.54,1.89,4.96-4.05,1.54,1.34,3.53-3.79,1.44-1.34-3.53-6.53,2.48c-.76.29-1.2.62-1.32,1-.12.38-.02.97.28,1.78l.55,1.44-4.05,1.54-1.19-3.13Z"/>
  </g>
  <g>
    <path class="cls-3" d="m23.16,260.62v-23.33h8.28l4.86,16.73,4.93-16.73h8.28v23.33h-5.38v-18.34l-5.55,18.34h-4.54l-5.52-18.34v18.34h-5.34Z"/>
    <path class="cls-3" d="m57.85,261.04c-1.09,0-2.1-.21-3-.63-.91-.42-1.63-1.01-2.17-1.76-.54-.76-.8-1.66-.8-2.71,0-1.42.49-2.55,1.49-3.39.99-.84,2.35-1.47,4.07-1.89,1.72-.42,3.7-.71,5.94-.87,0-1.23-.2-2.11-.59-2.62-.4-.51-1.16-.77-2.3-.77-.72,0-1.36.17-1.9.51s-.91.86-1.1,1.55l-4.47-1.61c.58-1.16,1.55-2.13,2.92-2.9s3.03-1.15,5.01-1.15c2.47,0,4.37.55,5.7,1.64,1.33,1.09,1.99,2.96,1.99,5.59v3.81c0,.75.02,1.55.07,2.41.05.86.12,1.68.21,2.44s.2,1.41.31,1.92h-4.93l-.63-2.1c-.65.91-1.47,1.56-2.46,1.94-.99.38-2.1.58-3.34.58Zm1.96-3.63c1.05,0,1.92-.28,2.62-.84.7-.56,1.05-1.63,1.05-3.21v-.42c-1.84.16-3.32.41-4.44.75-1.12.34-1.68.96-1.68,1.87,0,.56.23,1.01.7,1.34.46.34,1.05.51,1.75.51Z"/>
    <path class="cls-3" d="m72.62,266.24v-3.84h1.05c.79,0,1.39-.04,1.78-.11.4-.07.71-.24.93-.51.22-.27.42-.69.61-1.28l-6.64-17.22h5.69l3.39,10.83,3.32-10.83h5.7l-6.64,17.33c-.56,1.47-1.12,2.61-1.69,3.42-.57.81-1.3,1.39-2.18,1.71s-2.08.49-3.6.49h-1.71Z"/>
    <path class="cls-3" d="m106.58,260.62v-15.65h-5.31v-4.3c1.23,0,2.26-.06,3.07-.19s1.5-.43,2.04-.91c.55-.48,1.03-1.24,1.45-2.29h4.02v23.33h-5.27Z"/>
    <path class="cls-3" d="m116.46,260.62v-4.37c3.07-2.17,5.52-4,7.33-5.5,1.82-1.5,3.13-2.82,3.93-3.96s1.21-2.21,1.21-3.21c0-.91-.32-1.59-.96-2.06-.64-.47-1.39-.7-2.25-.7-.72,0-1.43.2-2.13.61-.7.41-1.18,1.16-1.43,2.25l-4.82-1.75c.63-1.63,1.71-2.88,3.25-3.76,1.54-.87,3.33-1.31,5.38-1.31,1.58,0,3,.26,4.26.79,1.26.52,2.25,1.29,2.97,2.31.72,1.01,1.08,2.25,1.08,3.72,0,2.35-.98,4.54-2.95,6.55-1.97,2.01-4.66,4.02-8.09,6.03h11.14v4.37h-17.92Z"/>
    <path class="cls-3" d="m37.22,295.55v-4.37c3.07-2.17,5.52-4,7.33-5.5,1.82-1.5,3.13-2.82,3.93-3.96s1.21-2.21,1.21-3.21c0-.91-.32-1.59-.96-2.06s-1.39-.7-2.25-.7c-.72,0-1.43.2-2.13.61-.7.41-1.18,1.16-1.43,2.25l-4.82-1.75c.63-1.63,1.71-2.88,3.25-3.76,1.54-.87,3.33-1.31,5.38-1.31,1.58,0,3,.26,4.26.79,1.26.52,2.25,1.29,2.97,2.3.72,1.01,1.08,2.25,1.08,3.72,0,2.35-.98,4.54-2.95,6.55-1.97,2.01-4.66,4.02-8.09,6.03h11.14v4.37h-17.92Z"/>
    <path class="cls-3" d="m68.07,295.97c-2.17,0-4-.49-5.48-1.48s-2.61-2.39-3.37-4.21c-.76-1.82-1.14-3.96-1.14-6.43,0-3.75.85-6.69,2.55-8.84,1.7-2.14,4.18-3.21,7.44-3.21s5.77,1.07,7.47,3.21c1.7,2.14,2.55,5.09,2.55,8.84,0,2.47-.38,4.61-1.14,6.43-.76,1.82-1.88,3.22-3.37,4.21s-3.33,1.48-5.52,1.48Zm0-3.95c1.16,0,2.11-.44,2.83-1.33l-7.09-10.2c-.09.49-.16,1.01-.21,1.55-.05.55-.07,1.15-.07,1.8,0,2.82.42,4.89,1.26,6.2.84,1.32,1.93,1.97,3.28,1.97Zm4.33-5.06c.14-.91.21-1.93.21-3.07,0-2.84-.41-4.91-1.24-6.2-.83-1.29-1.93-1.94-3.3-1.94-1.05,0-1.94.38-2.69,1.15l7.02,10.06Z"/>
    <path class="cls-3" d="m80.47,295.55v-4.37c3.07-2.17,5.52-4,7.33-5.5,1.82-1.5,3.13-2.82,3.93-3.96s1.21-2.21,1.21-3.21c0-.91-.32-1.59-.96-2.06s-1.39-.7-2.25-.7c-.72,0-1.43.2-2.13.61-.7.41-1.18,1.16-1.43,2.25l-4.82-1.75c.63-1.63,1.71-2.88,3.25-3.76,1.54-.87,3.33-1.31,5.38-1.31,1.58,0,3,.26,4.26.79,1.26.52,2.25,1.29,2.97,2.3.72,1.01,1.08,2.25,1.08,3.72,0,2.35-.98,4.54-2.95,6.55-1.97,2.01-4.66,4.02-8.09,6.03h11.14v4.37h-17.92Z"/>
    <path class="cls-3" d="m111.62,295.55v-4.93h-11.35v-3.88l11.35-14.53h5.31v13.73h3.21v4.68h-3.21v4.93h-5.31Zm-5.59-9.61h5.59v-6.78l-5.59,6.78Z"/>
  </g>
  <g>
    <path class="cls-3" d="m92.71,418.34c-.51-.51-.89-1.07-1.11-1.69-.23-.62-.29-1.24-.19-1.84.1-.61.4-1.16.89-1.66.67-.67,1.43-.98,2.29-.92.86.06,1.79.39,2.79.99,1.01.6,2.07,1.38,3.2,2.34.58-.59.89-1.09.95-1.52.05-.43-.19-.9-.72-1.43-.34-.34-.72-.55-1.13-.64-.42-.09-.83-.02-1.25.23l-1.34-2.84c.82-.28,1.73-.29,2.73-.02,1,.27,1.97.86,2.89,1.78,1.16,1.15,1.79,2.29,1.9,3.42.11,1.14-.45,2.33-1.69,3.57l-1.79,1.8c-.35.35-.71.74-1.1,1.18-.38.43-.73.85-1.05,1.25s-.57.76-.75,1.06l-2.31-2.29.69-1.28c-.73.13-1.42.05-2.07-.23-.64-.28-1.26-.7-1.83-1.28Zm2.62-.81c.49.49,1.03.76,1.62.82.59.06,1.26-.29,2-1.04l.2-.2c-.94-.78-1.75-1.35-2.44-1.71-.68-.36-1.24-.32-1.66.11-.26.26-.36.59-.3.96.06.38.25.73.58,1.05Z"/>
    <path class="cls-3" d="m107.94,438.11c-.49-.4-.93-.86-1.33-1.4-.4-.53-.68-1.13-.86-1.79-.17-.66-.18-1.38-.01-2.14l2.88.99c-.1.46-.04.88.17,1.25.21.37.47.69.78.94.57.47,1.14.7,1.71.71.57,0,1.09-.28,1.57-.87l1.31-1.61c-.77.17-1.5.17-2.18,0-.68-.17-1.27-.46-1.77-.87-.64-.52-1.12-1.2-1.42-2.02-.3-.82-.37-1.71-.21-2.66s.61-1.88,1.34-2.78c.85-1.05,1.74-1.76,2.65-2.12s1.79-.48,2.62-.34c.84.14,1.56.46,2.17.95.56.45,1,1.02,1.31,1.7s.44,1.39.37,2.16l1.36-.94,2.34,1.91-6.74,8.29c-1.21,1.49-2.51,2.26-3.87,2.31-1.37.05-2.76-.5-4.18-1.66Zm4.96-6.14c.36.29.74.49,1.14.59.4.1.83.05,1.29-.14.45-.19.92-.58,1.39-1.15.71-.88,1.02-1.65.9-2.3-.11-.65-.43-1.19-.96-1.62-.54-.44-1.15-.63-1.83-.59-.68.05-1.34.46-1.98,1.25-.65.79-.93,1.54-.87,2.25.07.71.37,1.28.91,1.72Z"/>
    <path class="cls-3" d="m120.76,442.38c-.59-.42-1.04-.92-1.37-1.49s-.49-1.17-.48-1.79.21-1.21.62-1.78c.55-.77,1.25-1.19,2.11-1.27.86-.08,1.83.1,2.92.54s2.26,1.04,3.53,1.81c.48-.67.71-1.22.7-1.65-.02-.43-.33-.86-.94-1.3-.39-.28-.79-.43-1.22-.46-.43-.03-.82.11-1.19.42l-1.78-2.59c.76-.41,1.66-.56,2.69-.45,1.03.11,2.08.54,3.14,1.3,1.33.95,2.13,1.97,2.42,3.08.29,1.1-.08,2.37-1.1,3.8l-1.48,2.07c-.29.4-.59.85-.9,1.33s-.59.95-.84,1.41-.44.84-.58,1.16l-2.65-1.89.48-1.38c-.7.24-1.39.28-2.08.11s-1.35-.49-2.01-.97Zm2.46-1.22c.56.4,1.14.59,1.73.55.59-.03,1.2-.48,1.81-1.34l.16-.23c-1.05-.62-1.94-1.05-2.67-1.3-.73-.24-1.27-.12-1.62.37-.22.3-.27.63-.15,1s.37.68.74.95Z"/>
    <path class="cls-3" d="m133.51,450.68c-.79-.5-1.37-.98-1.75-1.41-.38-.44-.54-.92-.49-1.44.05-.53.32-1.17.81-1.93l3.01-4.71-1.59-1.02,1.46-2.27,1.59,1.02,1.56-2.43,2.95,1.89-1.56,2.43,2.1,1.34-1.46,2.27-2.1-1.34-2.51,3.92c-.29.46-.4.81-.31,1.06.09.25.37.53.85.83l.85.55-1.56,2.43-1.86-1.19Z"/>
    <path class="cls-3" d="m137.67,453.3l7.7-13.52,3.05,1.73-2.74,4.82c.44-.25,1.03-.4,1.75-.45.73-.05,1.47.14,2.23.58,1.28.73,1.96,1.59,2.02,2.58.06.99-.29,2.17-1.07,3.53l-3.48,6.11-3.05-1.73,3.04-5.34c.27-.47.49-.92.66-1.34.17-.42.22-.81.15-1.16-.07-.35-.36-.67-.85-.95-.64-.37-1.24-.4-1.8-.1-.56.3-1.1.91-1.62,1.82l-2.94,5.16-3.05-1.73Z"/>
    <path class="cls-3" d="m154.92,462.93c-1.1-.54-1.97-1.24-2.61-2.1-.63-.86-.99-1.81-1.06-2.87-.07-1.06.17-2.15.73-3.3.54-1.1,1.26-1.93,2.16-2.49s1.88-.86,2.93-.9,2.08.19,3.07.68c1.13.56,1.97,1.3,2.51,2.23.54.93.79,1.97.74,3.12-.05,1.14-.41,2.31-1.08,3.5l-7.6-3.73c-.3.75-.3,1.43,0,2.02.3.6.74,1.04,1.32,1.32.48.24.94.37,1.36.4.42.02.79-.02,1.09-.15l2.05,2.15c-.93.53-1.89.79-2.88.77-.99-.02-1.91-.24-2.75-.65Zm.74-7.73l4.68,2.3c.31-.67.33-1.29.06-1.85-.27-.56-.71-.99-1.32-1.28-.59-.29-1.2-.39-1.82-.3-.62.09-1.15.47-1.6,1.14Z"/>
    <path class="cls-3" d="m162.63,466.25l4.55-10.62,2.54,1.09-.26,2.19c.69-.72,1.39-1.13,2.11-1.23.71-.1,1.46.04,2.25.43l-1.39,3.25c-.16-.1-.3-.18-.42-.24-.13-.06-.27-.13-.42-.19-.78-.33-1.45-.4-2.03-.21-.58.19-1.04.71-1.4,1.55l-2.29,5.35-3.22-1.38Z"/>
    <path class="cls-3" d="m173.15,470.6l3.16-8.27-2.03-.77.96-2.52,5.32,2.03-4.12,10.79-3.3-1.26Zm6.46-11.94c-.53-.2-.92-.57-1.15-1.1-.24-.53-.25-1.06-.04-1.6.21-.55.58-.94,1.1-1.18.52-.23,1.05-.25,1.58-.04.55.21.93.57,1.16,1.09.23.52.24,1.06.03,1.61-.2.54-.57.93-1.09,1.17-.52.24-1.05.26-1.6.05Z"/>
    <path class="cls-3" d="m179.37,472.96l3.59-10.98,2.91.95-.06,1.6c.38-.33.93-.6,1.63-.79.7-.2,1.47-.16,2.3.12,1.4.46,2.23,1.17,2.5,2.13.26.96.15,2.18-.34,3.67l-2.18,6.69-3.33-1.09,1.91-5.84c.17-.52.29-1,.38-1.45s.05-.84-.09-1.17c-.14-.33-.49-.59-1.03-.76-.7-.23-1.3-.14-1.78.26-.49.41-.9,1.11-1.22,2.11l-1.84,5.65-3.33-1.09Z"/>
    <path class="cls-3" d="m197.27,483.29c-.61-.16-1.21-.4-1.79-.71-.59-.32-1.1-.74-1.53-1.27-.43-.53-.74-1.18-.91-1.94l3.03-.3c.1.46.33.81.68,1.06s.72.42,1.1.52c.71.18,1.33.16,1.85-.07.52-.23.87-.71,1.06-1.45l.52-2.01c-.63.48-1.29.78-1.98.91s-1.35.11-1.97-.05c-.8-.21-1.52-.62-2.13-1.25-.62-.62-1.05-1.4-1.31-2.33-.25-.93-.24-1.96.05-3.09.34-1.31.84-2.32,1.52-3.04.67-.71,1.42-1.18,2.24-1.41s1.61-.24,2.37-.04c.7.18,1.33.51,1.9.99.57.48.98,1.08,1.24,1.81l.84-1.42,2.93.75-2.66,10.35c-.48,1.86-1.33,3.1-2.55,3.72-1.22.62-2.72.7-4.49.24Zm1.94-7.65c.45.12.88.13,1.28.05.41-.08.78-.3,1.11-.66s.59-.91.78-1.63c.28-1.1.24-1.92-.14-2.47-.38-.54-.89-.9-1.54-1.07-.67-.17-1.31-.09-1.91.23-.6.33-1.03.98-1.28,1.96-.26.99-.2,1.79.15,2.41.36.61.87,1,1.54,1.18Z"/>
    <path class="cls-3" d="m216.25,482.56l1.43-8.73-1.87-.31.44-2.66,1.87.31.31-1.86c.15-.9.42-1.58.8-2.04.39-.45.92-.73,1.58-.82.67-.09,1.51-.06,2.53.11l1.57.26-.45,2.76-.96-.16c-.61-.1-1.02-.1-1.24-.01-.22.09-.36.36-.44.8l-.25,1.54,2.46.4-.44,2.67-2.46-.4-1.43,8.73-3.46-.57Z"/>
    <path class="cls-3" d="m229.66,484.76c-1.05-.12-2.01-.45-2.88-.99-.87-.54-1.53-1.29-1.99-2.25-.46-.97-.62-2.14-.46-3.51.16-1.39.57-2.49,1.24-3.32.67-.82,1.48-1.39,2.45-1.71s1.97-.42,3.03-.3c1.04.12,1.99.44,2.86.97.87.53,1.54,1.27,2,2.22s.62,2.12.46,3.51c-.16,1.37-.57,2.48-1.24,3.32-.67.84-1.49,1.42-2.45,1.75-.97.33-1.97.43-3.01.31Zm.31-2.73c.7.08,1.32-.11,1.84-.56.52-.46.85-1.29.99-2.49.14-1.22,0-2.1-.43-2.64s-.97-.85-1.65-.93c-.69-.08-1.3.1-1.84.53-.54.43-.87,1.25-1.01,2.47-.14,1.2,0,2.09.42,2.65s.97.89,1.68.96Z"/>
    <path class="cls-3" d="m238.37,485.33l.72-11.53,2.76.17.49,2.15c.41-.91.93-1.53,1.57-1.86.63-.33,1.39-.45,2.26-.35l-.22,3.53c-.18-.04-.34-.07-.48-.09-.14-.02-.29-.03-.46-.04-.84-.05-1.5.11-1.98.48-.48.38-.74,1.02-.8,1.93l-.36,5.81-3.5-.22Z"/>
    <path class="cls-3" d="m259.46,486.23c-.72.02-1.39-.11-1.99-.37-.6-.27-1.09-.65-1.46-1.14-.37-.5-.56-1.09-.57-1.79-.02-.95.29-1.71.93-2.28.64-.57,1.53-1.01,2.66-1.32,1.13-.31,2.43-.53,3.91-.67-.02-.82-.16-1.4-.43-1.74s-.78-.49-1.53-.48c-.48.01-.89.13-1.25.37s-.59.58-.7,1.05l-2.98-1c.37-.78.99-1.44,1.88-1.97.89-.53,1.98-.81,3.29-.85,1.63-.04,2.89.3,3.78,1.01.89.71,1.36,1.94,1.4,3.69l.06,2.54c.01.5.04,1.03.08,1.61.04.57.1,1.11.18,1.63.07.51.15.94.24,1.28l-3.25.07-.45-1.39c-.42.62-.95,1.06-1.6,1.33-.65.27-1.38.42-2.19.43Zm1.24-2.45c.69-.02,1.26-.21,1.72-.6.45-.38.67-1.1.64-2.16v-.28c-1.22.14-2.19.33-2.92.57-.73.24-1.09.67-1.08,1.27,0,.37.17.67.48.89s.7.32,1.16.31Z"/>
    <path class="cls-3" d="m269.91,485.62l-.96-11.51,3.06-.26.56,1.5c.23-.45.62-.91,1.19-1.36.57-.45,1.29-.71,2.17-.79,1.47-.12,2.51.21,3.13.99s.98,1.95,1.11,3.52l.58,7.01-3.49.29-.51-6.13c-.05-.54-.12-1.03-.22-1.48s-.28-.79-.54-1.04c-.26-.25-.67-.35-1.24-.31-.74.06-1.25.37-1.54.93-.29.56-.4,1.37-.31,2.42l.49,5.92-3.49.29Z"/>
    <path class="cls-3" d="m285.2,484.14l-1.15-8.77-2.15.28-.35-2.68,5.65-.74,1.5,11.45-3.5.46Zm.02-13.58c-.56.07-1.07-.07-1.53-.42-.46-.35-.72-.82-.8-1.39-.08-.58.06-1.1.41-1.56.35-.45.81-.72,1.37-.79.58-.08,1.09.06,1.54.41s.71.81.79,1.4c.07.57-.06,1.09-.4,1.54-.34.46-.8.73-1.38.8Z"/>
    <path class="cls-3" d="m292.01,483.35l-2.24-11.33,3.01-.6.73,1.42c.17-.48.51-.97,1.02-1.48.51-.51,1.18-.85,2.01-1.01.89-.18,1.63-.16,2.23.06s1.09.61,1.47,1.18c.31-.71.77-1.29,1.38-1.75s1.3-.76,2.09-.91c1.43-.28,2.5-.07,3.2.63.71.71,1.21,1.83,1.51,3.37l1.36,6.9-3.44.68-1.19-6.03c-.11-.53-.23-1.01-.38-1.44s-.37-.75-.66-.97c-.29-.22-.72-.27-1.28-.16-.69.14-1.15.49-1.37,1.04-.22.56-.23,1.33-.03,2.32l1.18,5.99-3.46.68-1.19-6.03c-.11-.53-.23-1.01-.37-1.45-.14-.43-.35-.76-.64-.98-.29-.22-.7-.28-1.25-.17-.71.14-1.17.5-1.39,1.08s-.24,1.37-.04,2.36l1.17,5.92-3.44.68Z"/>
    <path class="cls-3" d="m316.5,478.23c-.7.2-1.37.24-2.02.13-.65-.11-1.22-.36-1.69-.75-.48-.39-.81-.92-1-1.59-.26-.91-.15-1.72.33-2.44.48-.71,1.23-1.36,2.25-1.93s2.23-1.12,3.62-1.62c-.22-.79-.51-1.32-.85-1.57s-.88-.29-1.6-.08c-.46.13-.83.35-1.12.67-.29.31-.43.71-.42,1.19l-3.13-.24c.16-.85.6-1.65,1.33-2.38s1.72-1.28,2.98-1.63c1.57-.44,2.88-.43,3.92.04,1.04.46,1.8,1.54,2.27,3.23l.68,2.44c.13.48.29.99.48,1.54.18.54.38,1.06.57,1.53.2.48.38.87.55,1.18l-3.13.88-.78-1.23c-.25.7-.66,1.26-1.21,1.68-.56.42-1.23.74-2.02.96Zm.59-2.68c.67-.19,1.17-.52,1.52-1.01.34-.48.37-1.23.09-2.25l-.08-.27c-1.14.43-2.04.86-2.69,1.27-.65.42-.89.92-.73,1.5.1.36.33.6.69.74.36.13.76.14,1.2.02Z"/>
    <path class="cls-3" d="m329.96,473.82c-.89.3-1.62.45-2.2.48-.58.02-1.05-.16-1.43-.53s-.71-.99-.99-1.84l-3.89-11.67,3.33-1.11,3.59,10.78c.17.52.38.82.64.9.26.09.66.04,1.22-.15l.94-.31.91,2.74-2.12.71Z"/>
    <path class="cls-3" d="m341.73,469.48l-4.45-10.66,2.55-1.07,1.39,1.72c-.03-1,.16-1.79.59-2.37.42-.58,1.05-1.02,1.87-1.31l1.36,3.27c-.18.04-.34.09-.47.13-.13.05-.27.1-.43.17-.78.33-1.3.76-1.57,1.31-.26.55-.22,1.24.14,2.09l2.25,5.37-3.24,1.35Z"/>
    <path class="cls-3" d="m348.08,452.02c-.52.24-1.04.26-1.59.06-.54-.2-.93-.56-1.18-1.08-.25-.53-.27-1.07-.08-1.61s.56-.93,1.07-1.17c.53-.25,1.06-.27,1.59-.07s.92.56,1.17,1.1c.24.52.27,1.05.08,1.59-.19.54-.55.94-1.08,1.18Zm4.07,12.95l-3.74-8.02-1.97.92-1.14-2.45,5.16-2.41,4.88,10.47-3.2,1.49Z"/>
    <path class="cls-3" d="m365.38,463.71c-.56.29-1.16.52-1.81.68-.65.16-1.31.19-1.99.09-.68-.1-1.34-.38-1.98-.83l2.04-2.26c.39.27.79.38,1.22.33.42-.05.81-.17,1.17-.35.65-.34,1.09-.78,1.32-1.29s.17-1.11-.19-1.78l-.97-1.83c-.15.78-.43,1.45-.86,2.01-.43.56-.92.99-1.5,1.29-.73.39-1.54.56-2.41.51-.88-.05-1.72-.33-2.54-.85s-1.49-1.29-2.04-2.32c-.63-1.2-.94-2.28-.92-3.27.02-.98.26-1.83.71-2.55.46-.72,1.03-1.26,1.72-1.62.64-.34,1.33-.52,2.08-.54.74-.02,1.45.15,2.13.51l-.33-1.62,2.67-1.41,4.99,9.45c.9,1.7,1.1,3.19.61,4.47-.49,1.28-1.54,2.34-3.16,3.2Zm-3.71-6.97c.41-.22.74-.49.99-.82s.38-.75.38-1.24c0-.49-.17-1.07-.52-1.73-.53-1-1.12-1.58-1.76-1.73-.64-.15-1.27-.07-1.86.25-.61.32-1.03.81-1.25,1.45-.23.64-.1,1.41.37,2.31.48.91,1.06,1.46,1.73,1.68.68.21,1.32.16,1.93-.16Z"/>
    <path class="cls-3" d="m371.31,455.09l-8.13-13.26,2.99-1.83,2.9,4.72c0-.51.15-1.09.45-1.75.31-.66.83-1.22,1.58-1.68,1.26-.77,2.34-.95,3.24-.52.9.42,1.76,1.3,2.58,2.64l3.67,6-2.99,1.83-3.21-5.24c-.28-.46-.57-.87-.86-1.22-.29-.35-.6-.58-.95-.69-.34-.11-.76-.01-1.25.29-.63.38-.95.89-.96,1.53,0,.63.26,1.4.81,2.3l3.1,5.06-2.99,1.83Z"/>
    <path class="cls-3" d="m387.33,444.82c-.77.53-1.43.89-1.98,1.07-.55.18-1.06.14-1.52-.12-.46-.25-.95-.75-1.46-1.5l-3.16-4.61-1.56,1.07-1.53-2.23,1.56-1.07-1.63-2.38,2.89-1.98,1.63,2.38,2.05-1.41,1.53,2.23-2.05,1.41,2.64,3.84c.31.45.59.68.86.7s.63-.13,1.1-.46l.84-.57,1.63,2.38-1.83,1.25Z"/>
    <path class="cls-3" d="m395.43,439.25c-1.06.81-2.13,1.32-3.21,1.51-1.08.2-2.08.05-3.02-.45l1.7-2.67c.43.28.9.37,1.44.27.53-.1,1.06-.35,1.58-.75.45-.34.8-.72,1.04-1.13s.25-.75.04-1.04c-.15-.2-.38-.29-.69-.26s-.76.19-1.36.51l-1.84.97c-.99.52-1.94.77-2.84.73-.9-.04-1.64-.44-2.22-1.21-.49-.64-.71-1.32-.65-2.05.05-.73.32-1.44.79-2.14.47-.7,1.08-1.34,1.83-1.9.87-.66,1.79-1.12,2.77-1.37.98-.25,1.92-.14,2.82.33l-1.68,2.66c-.34-.27-.71-.34-1.12-.21s-.82.35-1.23.66c-1,.76-1.32,1.39-.94,1.89.14.18.34.27.6.26.26-.01.62-.14,1.08-.37l1.93-.97c1.25-.64,2.28-.97,3.1-.99.82-.02,1.52.35,2.1,1.12.55.72.8,1.47.76,2.26-.04.79-.3,1.56-.79,2.3-.49.75-1.15,1.43-1.97,2.06Z"/>
    <path class="cls-3" d="m410.8,426.46c-.53.49-1.11.84-1.74,1.04-.63.2-1.25.24-1.85.11s-1.14-.45-1.61-.97c-.64-.7-.91-1.47-.81-2.32.1-.85.48-1.77,1.12-2.75.64-.98,1.47-2.01,2.48-3.09-.56-.6-1.05-.94-1.47-1.02-.42-.07-.91.14-1.46.66-.35.32-.58.69-.69,1.1-.11.41-.06.83.17,1.25l-2.89,1.21c-.24-.83-.21-1.74.1-2.73.31-.99.95-1.92,1.91-2.81,1.2-1.1,2.37-1.69,3.5-1.75,1.14-.06,2.3.56,3.49,1.85l1.72,1.86c.34.37.71.75,1.12,1.15.41.4.81.77,1.21,1.1.39.33.73.6,1.02.8l-2.39,2.21-1.25-.74c.09.74-.01,1.42-.32,2.05-.31.63-.76,1.22-1.36,1.78Zm-.69-2.66c.51-.47.8-1,.89-1.58.09-.59-.23-1.27-.95-2.04l-.19-.2c-.82.9-1.42,1.69-1.81,2.36-.39.67-.38,1.22.03,1.67.25.27.57.39.95.34s.74-.22,1.08-.53Z"/>
    <path class="cls-3" d="m422.09,415.46c-.88.91-1.8,1.5-2.77,1.77-.97.27-1.95.25-2.93-.07-.98-.31-1.91-.89-2.78-1.73-.87-.84-1.46-1.75-1.78-2.74-.31-.98-.34-1.97-.09-2.95.26-.98.78-1.89,1.58-2.72.46-.48.98-.88,1.57-1.22s1.24-.56,1.94-.66c.71-.1,1.46,0,2.25.26l-1.26,2.85c-.49-.21-.93-.26-1.32-.14-.39.12-.75.34-1.06.66-.29.3-.49.66-.6,1.08-.12.42-.08.89.1,1.39.18.51.57,1.04,1.16,1.61.6.58,1.17.95,1.69,1.12s.99.18,1.4.05c.41-.13.76-.34,1.05-.64.34-.35.56-.72.65-1.1s.09-.76-.02-1.14l2.74-1.33c.24.76.31,1.49.21,2.19-.1.7-.31,1.33-.63,1.91-.32.58-.69,1.09-1.12,1.53Z"/>
    <path class="cls-3" d="m430.32,406.01c-.62.71-1.17,1.21-1.65,1.52-.49.31-.99.4-1.5.27s-1.11-.49-1.79-1.09l-4.21-3.68-1.25,1.42-2.03-1.78,1.24-1.42-2.17-1.9,2.3-2.64,2.18,1.9,1.64-1.88,2.04,1.78-1.64,1.88,3.51,3.06c.41.36.74.51,1,.46.26-.05.58-.29.95-.72l.67-.76,2.18,1.9-1.46,1.67Z"/>
    <path class="cls-3" d="m425.03,391.31c-.36.44-.83.69-1.4.75-.58.06-1.09-.09-1.53-.45-.46-.37-.72-.84-.78-1.41-.06-.57.09-1.08.45-1.52.37-.45.83-.71,1.4-.77s1.08.1,1.54.47c.45.36.7.83.77,1.4.07.57-.08,1.08-.45,1.54Zm9.35,9.84l-6.88-5.56-1.36,1.69-2.1-1.7,3.58-4.43,8.99,7.26-2.22,2.74Z"/>
    <path class="cls-3" d="m440.29,393.6l-11.73-3.55,2.14-2.92,7.79,2.69-4.9-6.63,2.14-2.92,6.88,10.15-2.33,3.18Z"/>
    <path class="cls-3" d="m437.04,374.8c-.31.47-.76.77-1.32.88-.57.11-1.09,0-1.57-.31-.49-.33-.79-.77-.9-1.33-.11-.56,0-1.08.31-1.55.32-.49.76-.78,1.32-.89.56-.11,1.08,0,1.57.32.48.32.78.76.9,1.32.12.56.02,1.08-.3,1.57Zm10.24,8.92l-7.37-4.89-1.2,1.81-2.25-1.49,3.15-4.75,9.63,6.38-1.95,2.94Z"/>
    <path class="cls-3" d="m453.71,374.08c-.69,1.15-1.49,2.01-2.42,2.6-.93.58-1.92.82-2.97.71l.59-3.12c.5.1.98,0,1.43-.28.45-.29.85-.72,1.19-1.29.29-.49.47-.96.54-1.43.07-.47-.05-.79-.35-.98-.21-.13-.46-.12-.74.01s-.64.46-1.07.97l-1.35,1.58c-.73.85-1.52,1.43-2.36,1.73-.85.3-1.69.2-2.51-.29-.69-.42-1.15-.97-1.36-1.66-.22-.69-.24-1.45-.06-2.28.18-.82.51-1.64.99-2.44.56-.94,1.25-1.7,2.07-2.3s1.73-.84,2.74-.74l-.58,3.09c-.42-.12-.79-.05-1.12.22s-.63.63-.9,1.07c-.65,1.08-.7,1.78-.17,2.1.2.12.42.13.66.02.24-.11.52-.36.87-.74l1.43-1.62c.92-1.06,1.76-1.75,2.51-2.07s1.54-.23,2.37.26c.77.46,1.29,1.07,1.55,1.81s.3,1.56.12,2.44c-.18.88-.54,1.76-1.07,2.64Z"/>
    <path class="cls-3" d="m459.92,362.44c-.44.83-.86,1.45-1.27,1.86-.4.41-.87.61-1.4.6s-1.19-.23-1.99-.65l-4.93-2.62-.89,1.67-2.39-1.27.89-1.67-2.55-1.36,1.65-3.09,2.55,1.36,1.17-2.2,2.38,1.27-1.17,2.2,4.11,2.19c.48.25.84.33,1.08.22.24-.11.49-.41.76-.91l.48-.89,2.55,1.36-1.04,1.96Z"/>
    <path class="cls-3" d="m464.53,353.76c-.57,1.21-1.28,2.15-2.15,2.82s-1.83,1.01-2.89,1l.27-3.16c.51.05.97-.09,1.4-.43.42-.34.78-.8,1.06-1.4.24-.52.38-1.01.4-1.48.02-.47-.13-.78-.45-.94-.22-.1-.47-.08-.74.09-.27.16-.59.52-.97,1.07l-1.19,1.71c-.64.92-1.37,1.57-2.18,1.96-.81.38-1.66.37-2.53-.04-.73-.34-1.24-.85-1.53-1.52s-.38-1.42-.29-2.26c.09-.84.34-1.68.74-2.53.46-.99,1.07-1.82,1.83-2.49.75-.67,1.64-1.01,2.65-1.01l-.26,3.14c-.42-.08-.79.03-1.09.33s-.56.69-.79,1.16c-.53,1.14-.52,1.84.04,2.11.21.1.43.08.65-.05.23-.13.49-.41.79-.83l1.26-1.75c.81-1.15,1.58-1.92,2.29-2.31s1.51-.39,2.38.02c.81.38,1.39.93,1.72,1.65.33.72.45,1.52.36,2.41-.09.89-.36,1.8-.79,2.74Z"/>
  </g>
  <polygon class="cls-3" points="168.79 336.85 187.74 350.19 207.26 369.92 223.19 386 236.15 395.58 252.28 400.32 230.76 408.08 214.4 407.17 200.54 420.76 191.43 427.49 179.66 431.16 150.51 418.33 120.9 392.13 111.18 380.57 151.73 352.02 168.79 336.85"/>
  <path class="cls-3" d="m201.97,328.72l.58-14-1.12-7.01-.86,6.9-1.04,4.97-23.75-14.15s-2.45-9.47-2.42-10,3.57-10.28,3.57-10.28l4.81-3.31,17.77,8.09,4.31,1.4,1.95,4.44v-7.46l-3.03-8.41.22,7.98-20.7-7.98-3.67-7.65,4.1-11.54,6.88-3.89,26.25,6.69,9.89-.11,5.36-7.39-6.44,4.91-5.71.75-25.57-6.36-1.26-9.27,9.48-12.19,13.31.99,33.42,9.06,23.1,8.12,12.86,9.51,13.91,3.05-4.31,12.08,2.39,8.86,5.79,2.34-3.96,6.12.21,9.88,5.98,7.05,4.85.86-1.78,4.8,1.11,8.53,7.14,6.66h8.68l4.97-1.02v4.12l8.91,7.07,14.14,2.45,26.75,12.36,29.97,15.2-6.15,7.98-23.61,23.83-19.41,13.58-22.1,12.29-46.49-27.68-37.04-4.98-18.36-4.97-24.15-21.13-6.07-7.51-.72-6.69-2.05,2.78-19.74-16.5-14.87-10.99-2.06-12.99,5.63-9.71,3.84-.74,24.18,13.74,2.16,6.46Z"/>
  <polygon class="cls-3" points="237.04 236.68 256 228.84 264.86 224.55 264.86 226.25 270.84 221.16 282.32 221.97 298.92 235.23 317.97 244.36 319.04 250.11 306.26 259.16 289.04 260.62 273.03 250.11 242.3 239.48 230.25 237.09 237.04 236.68"/>
  <polygon class="cls-3" points="221.84 234.29 233.65 234.7 249.89 229.42 258.99 224.71 242.14 223.03 230.25 231.22 221.84 234.29"/>
  <polygon class="cls-3" points="320.61 246.43 321.07 249.17 326.96 250.08 320.83 251.34 305.29 262.76 300.72 264.98 296.43 277.03 298.7 283.38 307.19 284.39 335.41 273.43 343.07 265.02 338.93 250.55 330.28 247.4 320.61 246.43"/>
  <polygon class="cls-3" points="300.68 294.82 305.04 288.28 337.61 275.15 347.15 275.15 354.48 288.35 349.47 297.09 311.41 309.11 305.32 308.73 300.25 302.32 300.68 294.82"/>
  <polygon class="cls-3" points="309.27 316.56 312.71 311.08 348.95 299.62 355.21 306.71 355.21 316.9 347.58 323.61 325.83 328.87 317.18 329.84 310.3 324.18 309.27 316.56"/>
  <polygon class="cls-3" points="331.62 330.24 348.93 325.5 353.78 323.5 359.82 331.37 358.52 338.65 354.48 342.26 339.12 340.05 331.62 333.85 331.62 330.24"/>
  <polygon class="cls-3" points="36.8 180.16 46.94 175.42 54.27 177.79 61.12 181.45 150.83 193.91 163.12 190.84 170.61 192.56 172.46 199.62 164.03 200.8 156.9 211.32 159.6 223.07 170.26 225.97 168.44 232.02 161.51 234.82 140.7 226.15 120.79 228.25 105.26 221.56 92.66 224.95 76.48 218.01 53.94 215.97 40.57 220.81 30.87 203.66 36.8 180.16"/>
  <polygon class="cls-3" points="223.82 231.55 171.81 224.04 162 221.1 159.09 211.17 166.17 202.64 179.39 201.61 296.43 210.17 298.92 213.64 297.61 229.73 281.76 219.02 268.82 219.02 262.68 221.99 239.93 220.5 223.82 231.55"/>
  <polygon class="cls-3" points="310.55 234.89 298.92 230.29 300.56 213.05 306.5 211.17 315.24 211.17 315.24 212.83 310.71 215.97 308.11 229.13 310.71 232.88 310.55 234.89"/>
  <polygon class="cls-3" points="315.02 214.26 320.97 214.38 322.51 207.49 338.4 209.33 338.4 216.14 344.87 215.97 345.4 211.17 343.07 209.66 344.14 201.61 358.02 203.71 358.02 211.17 353.73 211.17 354.48 215.97 374.07 218.01 379.05 224.53 379.1 232.88 372.77 240.29 317.66 236.53 309.71 229.42 312.1 216.58 315.02 214.26"/>
  <polygon class="cls-3" points="352.27 246.43 365.69 242.42 372.77 246.33 374.66 263.37 371.12 268.83 378.06 275.99 382.84 288.52 377.1 296.44 359.82 297.28 356.74 294.01 357.28 284.62 349.36 272.5 352.47 264.13 349.04 255.25 352.27 246.43"/>
  <polygon class="cls-3" points="336.91 240.29 359.82 240.89 348.04 245.66 347.09 254.23 338.36 246.43 332.24 244.6 336.91 240.29"/>
  <polygon class="cls-3" points="430.98 217.25 381.22 222.69 382.84 232.14 377.1 240.47 429.38 251.56 429.49 256.9 379.1 273.35 385.91 288.68 422.13 291.07 433.78 291.16 430.98 217.25"/>
  <polygon class="cls-3" points="433.78 217.09 436.59 290.84 453.19 290.15 461.92 288.54 458.47 218.03 441.49 216.04 433.78 217.09"/>
  <polygon class="cls-3" points="462.41 218.03 463.5 248.42 492.02 246.43 481 226.43 462.41 218.03"/>
  <polygon class="cls-3" points="463.62 254.23 493.08 251.64 490.17 269.37 474.68 283.81 465.33 287.69 463.62 254.23"/>
  <polygon class="cls-3" points="42.21 322.48 52.43 323.77 58.09 326.51 83.32 322.48 92.79 315.19 113.57 316.27 125.15 307.11 143.6 308.36 161.51 298.38 171.81 301.24 169.85 306.04 163.12 316.98 165.45 333.8 159.09 340.75 150.97 340.75 64.98 360 62.43 364.85 54.84 367.54 42.21 356.28 36.75 336.85 42.21 322.48"/>
</svg>